<?xml version="1.0" encoding="UTF-8" standalone="no"?>
<!-- Creator: CorelDRAW -->

<svg
        xml:space="preserve"
        width="192.67354mm"
        height="190.55856mm"
        version="1.1"
        style="clip-rule:evenodd;fill-rule:evenodd;image-rendering:optimizeQuality;shape-rendering:geometricPrecision;text-rendering:geometricPrecision"
        viewBox="0 0 19267.354 19055.857"
        id="svg82"
        sodipodi:docname="Tacna.svg"
        inkscape:version="1.4.3 (0d15f75, 2025-12-25)"
        xmlns:inkscape="http://www.inkscape.org/namespaces/inkscape"
        xmlns:sodipodi="http://sodipodi.sourceforge.net/DTD/sodipodi-0.dtd"
        xmlns:xlink="http://www.w3.org/1999/xlink"
        xmlns="http://www.w3.org/2000/svg"
        xmlns:svg="http://www.w3.org/2000/svg"><sodipodi:namedview
   id="namedview82"
   pagecolor="#ffffff"
   bordercolor="#000000"
   borderopacity="0.25"
   inkscape:showpageshadow="2"
   inkscape:pageopacity="0.0"
   inkscape:pagecheckerboard="0"
   inkscape:deskcolor="#d1d1d1"
   inkscape:document-units="mm"
   inkscape:zoom="1.0167559"
   inkscape:cx="478.48257"
   inkscape:cy="376.19647"
   inkscape:window-width="1920"
   inkscape:window-height="1009"
   inkscape:window-x="-8"
   inkscape:window-y="-8"
   inkscape:window-maximized="1"
   inkscape:current-layer="Plan_x0020_1"><inkscape:page
     x="4.6772476e-07"
     y="0"
     width="19267.354"
     height="19055.857"
     id="page82"
     margin="0 0 0 0"
     bleed="0" /></sodipodi:namedview>
    <defs
            id="defs1"><linearGradient
   id="swatch83"
   inkscape:swatch="solid"><stop
     style="stop-color:#000000;stop-opacity:0;"
     offset="0"
     id="stop83" /></linearGradient>
        <rect
                x="833.04156"
                y="310.79239"
                width="249.81413"
                height="45.241928"
                id="rect82"/>
        <style
                type="text/css"
                id="style1">
   <![CDATA[
    .str7 {stroke:black;stroke-width:10;stroke-miterlimit:3.864;stroke-opacity:0.501961}
    .str9 {stroke:black;stroke-width:50;stroke-miterlimit:22.9256}
    .str2 {stroke:#003399;stroke-width:20;stroke-miterlimit:22.9256}
    .str11 {stroke:#434242;stroke-width:10;stroke-miterlimit:22.9256}
    .str4 {stroke:#F5B2B6;stroke-width:10;stroke-miterlimit:3.864}
    .str0 {stroke:black;stroke-width:10;stroke-miterlimit:22.9256}
    .str8 {stroke:black;stroke-width:10;stroke-miterlimit:3.864}
    .str1 {stroke:#003399;stroke-width:10;stroke-miterlimit:22.9256}
    .str6 {stroke:red;stroke-width:10;stroke-miterlimit:3.864}
    .str12 {stroke:#2B2A29;stroke-width:7.62;stroke-miterlimit:22.9256}
    .str10 {stroke:black;stroke-width:7.62;stroke-miterlimit:22.9256}
    .str3 {stroke:#F5B2B6;stroke-width:10;stroke-linejoin:round;stroke-miterlimit:3.864}
    .str5 {stroke:red;stroke-width:10;stroke-linejoin:round;stroke-miterlimit:3.8637}
    .fil4 {fill:none}
    .fil3 {fill:#FEFEFE}
    .fil1 {fill:#D9DADA}
    .fil0 {fill:#A2D9F7}
    .fil2 {fill:#ECECED}
    .fil8 {fill:#FEFEFE;fill-rule:nonzero}
    .fil7 {fill:#D9DADA;fill-rule:nonzero}
    .fil9 {fill:#434242;fill-rule:nonzero}
    .fil6 {fill:black;fill-rule:nonzero}
    .fil5 {fill:#FEFEFE;fill-rule:nonzero;fill-opacity:0.501961}
   ]]>
  </style>
        <linearGradient
                inkscape:collect="always"
                xlink:href="#swatch83"
                id="linearGradient83"
                x1="4999.3002"
                y1="10942.012"
                x2="11441.59"
                y2="10942.012"
                gradientUnits="userSpaceOnUse"
                gradientTransform="matrix(1.0136212,0,0,1.1455082,532.04711,-1182.7397)"/></defs>
    <g
            id="Plan_x0020_1"
            inkscape:label="Plan 1"
            inkscape:groupmode="layer"
            transform="translate(-975.22908,-978.11525)">
  <metadata
          id="CorelCorpID_0Corel-Layer"/>
        <rect
                class="fil0"
                x="1000"
                y="1000"
                width="19220.961"
                height="19000"
                id="rect1"
                style="fill:#3973d6;fill-opacity:1"/>
        <path
                class="fil1 str0"
                d="m 10142.04,19493.84 c 64.86,-87.29 148.57,-188.46 234.33,-253.6 241.45,-183.37 542.45,-216.4 834.87,-192.83 l 843.08,135.25 531.05,-28.33 1062.06,-573.91 709.86,29.25 197.09,-82.25 458.03,-482.52 233.58,-243.09 427.01,-358.24 468.99,-564.77 193.43,-420.38 465.34,-1016.22 56.57,-484.35 -317.53,-385.65 -204.38,-427.69 -18.25,-553.81 -16.42,-557.46 7.3,-175.46 -231.76,-204.71 -23.72,-429.51 304.75,-665.3 1397.83,153.53 487.23,-400.27 695.27,-511.77 938,-890.12 v 0 l 20.01,1180.73 325.3,317.11 v 0 8592.53 h -9684 l -132.31,-193.17 c -79.92,-106.73 -163.06,-220.81 -262.61,-312.99 z"
                id="path1"
                style="fill:#9b9fa0;fill-opacity:1"/>
        <path
                class="fil1 str0"
                d="m 19875.65,9909.63 20.01,1180.73 325.3,317.11 v 0 -5909.07 0 l -125.42,-102.35 -212.59,186.42 -311.14,223.9 c -69.09,49.72 -141.72,119.7 -218.07,157.19 -154.4,75.8 -351.87,41.98 -457.12,202.88 -27.91,64.63 -54.67,135.49 -114.06,177.29 -90.22,63.48 11.37,77.57 15.51,142.56 3.08,48.27 -54.04,53.82 -74.82,85.9 -11.51,17.76 -8.4,40.92 -20.98,56.66 -37.62,47.1 -112.6,34.33 -162.41,50.27 -90.37,28.94 -77.72,87.43 -122.27,153.53 -59.96,189.39 -53.76,444.77 -265.52,530.04 -57.81,23.28 -64.53,-39.99 -97.63,34.73 -8.7,19.66 -43.28,36.9 -60.22,55.74 l 20.08,64.89 v 0 l 395.08,-0.92 c 72.54,0 158.43,-0.77 227.19,22.85 29.6,10.16 65.02,35.84 92.16,52.09 42.1,25.19 98.15,64.55 132.3,97.78 l 1032.87,808.76 z"
                id="path2"
                style="fill:#9b9fa0;fill-opacity:1"/>
        <path
                class="fil2 str0"
                d="m 14167.51,1000 47.44,47.86 c -1.68,61.38 18.54,187.12 -30.11,232.12 -55.19,51.04 -70.7,95.28 -151.46,111.49 -46.68,9.37 -102.17,6.09 -150.55,11.88 -184.67,22.14 12.23,92.98 -89.42,134.34 -49.87,20.3 -46.11,6.76 -56.57,59.4 -5.23,26.37 -97.29,47.73 -125.92,67.63 -19.69,21.93 -61.32,50.93 -41.06,84.99 29.44,49.51 -21.11,107.13 -33.76,160.84 -17.17,72.95 -52.81,65.32 -93.98,110.58 -30.91,33.97 -66.48,18.55 -105.84,31.07 -26.68,8.48 -60.47,20.22 -58.39,53.01 2.25,35.36 -45.01,36.77 -66.61,63.97 -24.3,30.61 -17.34,91.75 -17.34,129.77 12.36,40.49 -3.92,120.63 -7.29,164.49 -6.5,84.73 13.59,181.84 -11.87,262.28 -24.08,76.07 -30.11,171.37 -30.11,252.23 14.6,58.43 -1.88,121.52 -52.92,156.27 -36.48,24.85 -75.46,2.91 -93.06,53.92 -59.26,171.8 -90.43,298.05 -281.95,367.37 l -118.61,53.01 v 0 c -16.25,-31.14 -41.48,-47.24 -57.48,-74.02 -13.34,-22.31 13.44,-50.68 18.25,-72.2 13.83,-61.91 -132.48,-82.45 -173.37,-111.49 -63.67,-45.23 -92.65,-30.68 -123.17,46.61 -37.63,95.32 -52.73,169.86 -153.29,210.19 -32.49,18.27 -64.59,54.49 -99.46,64.88 -28.6,8.53 -51.01,-8.95 -78.46,-5.48 -70.55,8.94 -99.03,103.66 -143.26,152.61 -90.83,100.55 -234.72,2.73 -301.1,-77.68 -60.85,-73.73 -53.58,-117.76 -10.03,-194.65 -13.59,-51.01 -88.02,-62.36 -92.16,-105.09 -5.7,-58.89 34.81,-106.46 33.76,-159.02 -0.47,-23.32 -18.07,-59.13 -25.55,-82.25 -13.4,-41.36 23.78,-66.89 31.03,-104.18 l 104.01,-318.02 c 30.05,-91.89 80.37,-119.2 179.75,-94.13 81.22,20.48 78.99,-41.15 108.58,-98.7 24.43,-47.54 46.9,-39.04 83.94,-63.06 77.83,-48.72 114.48,36.68 169.71,-10.05 l 105.85,-89.56 c 39.27,-33.22 40.84,-209.31 -23.73,-195.57 -95.02,20.21 -107.64,24.19 -166.97,-59.4 -29.97,-42.21 -62.96,0.73 -104.93,2.74 -133.44,6.38 -251.26,-78.29 -375.01,-95.95 -64.25,-53.68 -62.03,-79.67 -80.29,-156.27 -15.68,-65.81 -91.19,-27.63 -107.67,-73.11 -9.72,-26.8 -2.45,-92.5 -24.63,-107.84 -31.88,-22.06 -118.8,48.01 -152.38,61.23 -90.23,35.55 -136.56,28.27 -222.63,-11.88 -149.41,-69.71 -163.38,107.92 -298.37,106.01 -62.57,-0.89 -105.77,51.39 -164.23,58.49 -75.94,9.87 -123.25,-35.54 -156.94,62.14 -18.58,53.85 -108.49,18.96 -154.2,60.31 -35.19,31.85 -41.35,79.43 -67.52,117.89 -33.91,49.81 -102.25,47.35 -153.29,67.63 -67.33,26.74 -123.02,137.17 -181.57,138.91 -43.24,1.29 -69.35,2.29 -105.84,27.41 -39.38,27.12 -73.68,74.5 -124.09,82.25 -54.9,8.43 -56.07,-16.43 -89.42,42.04 -11.16,41.08 -12.74,89.55 -33.76,127.03 -16.86,30.08 -48.53,42.35 -51.1,80.42 -4.22,62.35 22.58,132.26 23.73,194.65 1.11,59.72 6.17,43.71 40.14,84.99 39.36,47.81 -26.52,115.26 -57.48,143.48 -29.63,26.99 -17.12,58.89 -23.72,94.13 -5.72,28.68 -7.18,67.06 -20.99,92.3 -13.5,24.65 -59.43,43.72 -56.57,71.28 4.54,43.85 88.64,98.93 7.3,122.46 -46.29,13.38 -44.04,53.15 -44.71,95.95 -1.9,121.95 279.51,167.24 189.79,299.75 -13.47,52.75 -20.7,69.27 -53.84,110.58 -24.95,31.09 -11.04,57.94 -20.07,92.3 -20.4,77.53 -114.47,75.01 -113.14,175.46 0.33,25.09 -8.08,94.62 5.47,114.24 34.65,50.2 79.61,33.64 94.9,107.83 35.77,33.22 28.3,81.25 50.18,118.81 11.67,20.05 51.36,23.81 42.88,49.35 -30.88,92.91 66.25,72.53 47.45,148.04 -10.89,43.72 -59.29,70.85 -69.34,116.06 -10.72,48.18 -6.51,94.38 -20.99,145.31 -31.68,111.44 -84.86,65.25 -169.71,103.27 -44.27,41.97 -34.82,63.96 -104.93,44.78 -30.61,-8.38 -74.38,-16.67 -105.84,-9.14 -60.13,14.38 -101.61,159.76 -109.49,211.1 -13.03,84.95 -42.21,70.12 -79.38,127.94 -17.65,27.44 -6.17,70.08 -20.08,101.44 -18.52,41.72 -57.61,73.64 -84.85,109.67 -21.82,28.85 -43.3,94.79 -66.61,113.32 -26.76,68.63 -79.52,273.27 -157.85,297 -59.23,17.94 -192.27,141.09 -218.07,200.14 -32.94,75.36 -77.19,93.34 -153.29,60.32 -32.39,-14.06 -52.57,30.61 -78.47,41.12 -63.54,25.77 -130.94,40.36 -191.61,76.76 -48.46,33.87 -197.08,111.13 -248.18,76.77 -94.76,-63.74 -139.03,17.32 -254.56,-15.54 -49.42,-14.06 -118.98,-14.9 -170.63,-10.96 -93.41,7.12 -141.57,84.8 -219.89,117.89 -48.41,20.46 -73.51,7.45 -90.33,71.28 -10.61,40.26 -22.5,94.25 -56.57,121.54 -52.38,48.4 -156.03,161.93 -156.03,240.35 0,24.63 14.76,54.7 1.83,77.68 -22.38,39.75 -52.49,27.8 -85.77,42.95 -46.73,21.29 -40.01,77.69 -33.76,117.89 8.08,52 38.3,79.9 86.68,84.08 l 19.16,33.81 c -20.46,40.93 -56.4,56.52 -87.59,88.64 -43.27,44.54 -27.26,97.7 -72.09,131.6 -36.81,27.85 -74.36,44.56 -107.66,78.59 -35.52,36.28 -48.02,112.2 -78.47,136.17 -54.41,103.16 -105.58,231.73 -136.86,344.53 -22.28,80.38 -28.85,155.22 -4.57,235.78 10.65,35.33 51.39,62.72 55.66,95.95 32.34,36.44 108.06,79.12 106.76,135.25 -1.88,81.51 -82.31,126.35 -120.45,186.43 -29.06,45.8 5.28,83.72 -43.79,134.34 -45.23,46.64 -63.21,83.05 -130.48,99.61 -46.99,11.56 -36.79,32.71 -62.96,63.06 -17.85,20.7 -65.34,33.26 -91.24,44.78 -44.53,19.82 -46.99,53.91 -75.73,88.65 -40.98,43.96 -91.68,71.01 -117.7,127.02 -24.43,52.56 -55.93,50.21 -88.51,89.56 -22.34,26.97 -29.08,58.96 -55.66,84.99 -29.56,28.93 -71.16,47.08 -103.1,74.03 -46.92,39.57 -85.4,93.02 -121.35,142.56 -32.04,44.13 -51.79,134.15 -92.16,164.5 -36.46,46.94 -88.99,99.19 -137.78,133.42 -42.84,30.04 -74.53,10.28 -90.33,74.02 -10.34,41.7 -33.21,27.23 -55.65,46.61 -25.37,21.9 -33.57,74.12 -63.87,105.1 -31.96,32.69 -83.46,53.5 -108.58,85.9 -46.66,60.15 7.02,124.65 -31.03,182.77 -11.28,42.17 -16.31,93.64 -36.49,132.51 -16.28,31.34 -46.1,54.75 -65.7,84.08 -47.73,71.38 -35.84,139.27 -52.01,220.24 -9.03,45.25 -46.16,68.2 -62.04,108.75 -7.11,18.18 -4.08,37.73 -15.51,53.01 -10.31,58.89 13.49,162.2 -20.99,211.1 -47.38,67.17 -7.43,105.12 -20.98,172.72 -9.07,45.3 -18.25,72.1 -18.25,119.72 0,56.88 6.22,124.47 -25.55,174.55 -29.9,47.11 -119.19,-4.46 -161.5,8.22 -148.12,-15.42 -277.04,-187.47 -439.79,-106.01 -38.62,19.32 -99.27,73.23 -144.16,70.37 -68.32,-4.36 -90.47,-107.03 -167.89,-42.95 -78.71,65.13 -68.86,130.59 -126.83,198.31 -20.5,20.53 -99.2,152.94 -130.47,127.94 -79.53,-63.56 -79.3,-54.51 -162.42,-1.83 -43.25,27.4 -81.84,2.04 -125,7.31 -54.62,6.68 -83.46,82.67 -135.04,101.44 -61.83,22.49 -105.91,-82.77 -185.22,-41.12 -129.18,67.86 -17.95,233.88 -95.81,227.55 -44.03,-3.57 -98.24,-34.17 -136.86,8.23 -42.64,46.83 -8.3,129.08 -24.64,183.68 l -105.84,212.02 c -25.53,51.14 -64.91,89.81 -84.85,146.22 -28.67,81.13 -11.25,293.56 -91.25,337.22 l -122.28,84.86 v 0 c -21.01,-2.17 -42.17,-1.64 -62.94,-10.84 -46.87,-20.78 -52.43,-50.95 -114.05,-42.04 -31.68,4.58 -101.76,-57.71 -112.23,-88.64 -8.89,-26.23 -5.09,-62.75 -40.15,-63.97 -46.8,-1.62 -54.31,-14.62 -61.13,-60.32 -17.23,-48.55 -17.35,-117.59 -50.18,-157.18 -34.63,-41.78 -76.38,-61.74 -120.44,-90.48 -76.05,-49.6 -146.77,-101.76 -230.85,-137.08 -42.9,-18.03 -95.65,-32.8 -131.39,-63.05 l -13.95,-2.53 V 1000 Z"
                id="path3"
                style="fill:#d6d6d6;fill-opacity:1"/>
        <path
                class="fil2 str0"
                d="m 14167.51,1000 47.44,47.86 c -1.68,61.38 18.54,187.12 -30.11,232.12 -55.19,51.04 -70.7,95.28 -151.46,111.49 -46.68,9.37 -102.17,6.09 -150.55,11.88 -184.67,22.14 12.23,92.98 -89.42,134.34 -49.87,20.3 -46.11,6.76 -56.57,59.4 -5.23,26.37 -97.29,47.73 -125.92,67.63 -19.69,21.93 -61.32,50.93 -41.06,84.99 29.44,49.51 -21.11,107.13 -33.76,160.84 -17.17,72.95 -52.81,65.32 -93.98,110.58 -30.91,33.97 -66.48,18.55 -105.84,31.07 -26.68,8.48 -60.47,20.22 -58.39,53.01 2.25,35.36 -45.01,36.77 -66.61,63.97 -24.3,30.61 -17.34,91.75 -17.34,129.77 12.36,40.49 -3.92,120.63 -7.29,164.49 -6.5,84.73 13.59,181.84 -11.87,262.28 -24.08,76.07 -30.11,171.37 -30.11,252.23 14.6,58.43 -1.88,121.52 -52.92,156.27 -36.48,24.85 -75.46,2.91 -93.06,53.92 -59.26,171.8 -90.43,298.05 -281.95,367.37 l -118.61,53.01 v 0 l 8.21,49.35 c 44.02,16.49 90.34,19.12 133.22,35.64 38.71,14.9 37.44,36.63 55.65,69.45 36.4,65.64 79.38,39.55 79.38,131.6 0,89.21 58.57,109.89 126.83,152.62 29.3,19.55 115.82,76.23 114.06,114.23 -0.81,17.68 -24.64,32.33 -24.64,56.66 0,46.04 35.92,35.02 13.69,93.21 -31.43,82.29 215.24,269.84 260.95,341.79 3.73,-0.12 6.56,-0.42 10.04,0.91 18.86,37.92 22.78,48.29 63.87,61.23 32.91,10.37 84.17,99.63 108.58,128.86 27.97,33.5 84.11,78.21 127.74,87.73 42.91,9.37 21.64,106.84 31.93,155.36 17.89,84.28 -33.28,169.16 -51.09,248.57 21.37,36.06 -1.13,81.28 0.91,120.63 2.76,53.4 45.62,80.28 45.62,139.82 0,39.55 12.57,133.62 53.85,155.4 33.72,-27.16 54.59,-74.12 108.56,-67.67 56.49,6.76 102.31,112.73 147.81,151.71 23,19.69 150.06,95.95 143.26,123.37 40.94,13.65 131.19,12.61 145.98,58.49 14.93,46.29 26.76,98.59 51.1,140.73 38.24,66.18 61.54,5.55 105.84,-0.91 41.62,-6.06 11.8,120.15 72.08,141.65 40.24,14.34 44.97,20.19 63.87,56.66 15.3,29.5 78.48,68.44 107.67,82.25 48.23,13.26 66.24,64.16 110.4,87.73 49.04,26.16 105.04,24.54 156.03,42.95 42.29,15.26 59.04,54.37 95.8,77.68 l 174.28,110.58 c 38.86,24.65 89.8,38.06 135.04,39.29 l 133.21,3.66 c 73.83,2.02 17.92,117.97 94.89,108.75 98.26,-11.78 77.14,27.33 126.83,84.99 69.93,21.98 68.32,64.68 160.59,42.95 92.57,-21.81 175.61,-13.51 262.78,-71.28 143.71,-95.26 249.33,-78.7 349.46,70.37 36.85,54.85 97.04,125.07 146.9,168.15 56.28,48.64 23.09,128.34 53.83,194.65 22.8,22.04 35.36,63.3 70.26,72.2 85.54,21.8 96.44,58.36 166.97,102.35 19.28,12.03 111.26,20.92 140.51,24.67 90.47,11.63 150.83,-33.81 178.84,-112.4 4.38,-12.28 166.95,-113.32 185.22,-113.32 17.84,16.24 17.86,46.48 47.45,53.92 26.81,6.73 94.52,-9.2 124.09,-11.88 49.6,-9.94 92.42,-43.54 141.43,-50.27 58.57,-8.04 93.94,-50.23 135.04,15.54 21.9,35.03 14.48,89.75 54.74,112.41 l 66.61,26.5 v 0 l -20.08,-64.89 c 16.94,-18.84 51.52,-36.08 60.22,-55.74 33.1,-74.72 39.82,-11.45 97.63,-34.73 211.76,-85.27 205.56,-340.65 265.52,-530.04 44.55,-66.1 31.9,-124.59 122.27,-153.53 49.81,-15.94 124.79,-3.17 162.41,-50.27 12.58,-15.74 9.47,-38.9 20.98,-56.66 20.78,-32.08 77.9,-37.63 74.82,-85.9 -4.14,-64.99 -105.73,-79.08 -15.51,-142.56 59.39,-41.8 86.15,-112.66 114.06,-177.29 105.25,-160.9 302.72,-127.08 457.12,-202.88 76.35,-37.49 148.98,-107.47 218.07,-157.19 l 311.14,-223.9 212.59,-186.42 125.42,102.35 v 0 V 1000 Z"
                id="path4"
                style="fill:#d6d6d6;fill-opacity:1"/>
        <path
                class="fil3 str0"
                d="m 10142.04,19493.84 c -38.94,-36.07 -80.42,-68.8 -125.17,-96.42 -136.35,-84.13 -306.79,-213.72 -414.24,-331.73 l -901.48,-643.37 -456.21,-277.81 c -127.77,-77.8 -277.78,-148.07 -387.78,-250.4 -80.74,-38.2 -141.33,-126.55 -232.67,-132.51 -106.05,-6.91 -175.9,-70.73 -260.96,-128.86 -126.19,-86.22 -316.43,-215.77 -460.77,-243.09 -54.37,-10.29 -71.68,-73.02 -100.37,-110.57 -36.35,-51.02 -194.45,-144.32 -203.47,-186.43 -20.24,-94.38 -80.31,-85.64 -123.18,-159.93 -18.79,-32.58 -84.37,-50.37 -115.88,-74.02 -18.23,-38.92 8.41,-70.07 -25.54,-106.93 -35.72,-38.8 -81.08,-48.17 -124.09,-74.02 -30.43,-18.3 -43.16,-56.55 -70.26,-71.28 -37.51,-46.64 -80.85,-136.99 -122.27,-170.9 -59.74,-48.93 -91.36,-8.64 -154.2,-91.38 -55.24,-72.75 -200.04,-194.34 -288.32,-222.07 -41.06,-12.89 -62.11,17.03 -95.81,12.79 -45.77,-35.08 -0.37,-103.62 -72.99,-140.73 -41.53,-21.23 -97.68,-46.64 -144.17,-52.09 -46.62,-15.17 -169.41,-96.85 -208.94,-87.74 -56.11,12.92 -106.87,-57.53 -167.89,-74.93 -118.07,-33.69 -252.74,-119.56 -208.94,-262.28 35.71,-116.33 -29.31,-120.59 -52.01,-219.33 -13.05,-56.8 -20.88,-87.53 -48.36,-138 -47.68,-40.57 -105.93,-76.57 -145.99,-127.02 -42.14,-53.09 4.43,-116.31 -40.15,-163.59 -37.89,-40.2 -73.93,-1.99 -112.23,-16.45 -57.6,-21.76 0.24,-108.82 -40.14,-124.28 -71.65,-27.42 -117.27,65.6 -132.3,-74.02 -4.03,-128.35 -245.92,-100.89 -318.44,-180.95 -113.44,-125.25 -238.99,-166.43 -366.8,-268.68 -82.65,-66.11 -156.37,-2.64 -246.35,21.93 -109.91,10.01 -109.07,-10.88 -198,-45.69 -60.98,-23.88 -87.08,58.52 -145.07,-5.48 -36.04,-39.76 -45.29,-24.45 -86.69,-44.78 -48.17,-23.64 -100.05,4.68 -143.25,-20.11 -60.35,-34.62 -134.08,-15.34 -175.18,-73.11 -44.78,-62.96 -63.13,-158.54 -108.58,-217.5 -24.61,-31.94 -66.09,-52.85 -83.94,-88.64 -47.62,-40.84 -106.85,-57.37 -156.03,-91.39 -36.8,-25.47 -67.91,-74.72 -106.75,-90.47 -10.88,-4.41 -21.86,-6.31 -32.87,-7.44 v 0 l 122.28,-84.86 c 80,-43.66 62.58,-256.09 91.25,-337.22 19.94,-56.41 59.32,-95.08 84.85,-146.22 l 105.84,-212.02 c 16.34,-54.6 -18,-136.85 24.64,-183.68 38.62,-42.4 92.83,-11.8 136.86,-8.23 77.86,6.33 -33.37,-159.69 95.81,-227.55 79.31,-41.65 123.39,63.61 185.22,41.12 51.58,-18.77 80.42,-94.76 135.04,-101.44 43.16,-5.27 81.75,20.09 125,-7.31 83.12,-52.68 82.89,-61.73 162.42,1.83 31.27,25 109.97,-107.41 130.47,-127.94 57.97,-67.72 48.12,-133.18 126.83,-198.31 77.42,-64.08 99.57,38.59 167.89,42.95 44.89,2.86 105.54,-51.05 144.16,-70.37 162.75,-81.46 291.67,90.59 439.79,106.01 42.31,-12.68 131.6,38.89 161.5,-8.22 31.77,-50.08 25.55,-117.67 25.55,-174.55 0,-47.62 9.18,-74.42 18.25,-119.72 13.55,-67.6 -26.4,-105.55 20.98,-172.72 34.48,-48.9 10.68,-152.21 20.99,-211.1 11.43,-15.28 8.4,-34.83 15.51,-53.01 15.88,-40.55 53.01,-63.5 62.04,-108.75 16.17,-80.97 4.28,-148.86 52.01,-220.24 19.6,-29.33 49.42,-52.74 65.7,-84.08 20.18,-38.87 25.21,-90.34 36.49,-132.51 38.05,-58.12 -15.63,-122.62 31.03,-182.77 25.12,-32.4 76.62,-53.21 108.58,-85.9 30.3,-30.98 38.5,-83.2 63.87,-105.1 22.44,-19.38 45.31,-4.91 55.65,-46.61 15.8,-63.74 47.49,-43.98 90.33,-74.02 48.79,-34.23 101.32,-86.48 137.78,-133.42 40.37,-30.35 60.12,-120.37 92.16,-164.5 35.95,-49.54 74.43,-102.99 121.35,-142.56 31.94,-26.95 73.54,-45.1 103.1,-74.03 26.58,-26.03 33.32,-58.02 55.66,-84.99 32.58,-39.35 64.08,-37 88.51,-89.56 26.02,-56.01 76.72,-83.06 117.7,-127.02 28.74,-34.74 31.2,-68.83 75.73,-88.65 25.9,-11.52 73.39,-24.08 91.24,-44.78 26.17,-30.35 15.97,-51.5 62.96,-63.06 67.27,-16.56 85.25,-52.97 130.48,-99.61 49.07,-50.62 14.73,-88.54 43.79,-134.34 38.14,-60.08 118.57,-104.92 120.45,-186.43 1.3,-56.13 -74.42,-98.81 -106.76,-135.25 -4.27,-33.23 -45.01,-60.62 -55.66,-95.95 -24.28,-80.56 -17.71,-155.4 4.57,-235.78 31.28,-112.8 82.45,-241.37 136.86,-344.53 30.45,-23.97 42.95,-99.89 78.47,-136.17 33.3,-34.03 70.85,-50.74 107.66,-78.59 44.83,-33.9 28.82,-87.06 72.09,-131.6 31.19,-32.12 67.13,-47.71 87.59,-88.64 l -19.16,-33.81 c -48.38,-4.18 -78.6,-32.08 -86.68,-84.08 -6.25,-40.2 -12.97,-96.6 33.76,-117.89 33.28,-15.15 63.39,-3.2 85.77,-42.95 12.93,-22.98 -1.83,-53.05 -1.83,-77.68 0,-78.42 103.65,-191.95 156.03,-240.35 34.07,-27.29 45.96,-81.28 56.57,-121.54 16.82,-63.83 41.92,-50.82 90.33,-71.28 78.32,-33.09 126.48,-110.77 219.89,-117.89 51.65,-3.94 121.21,-3.1 170.63,10.96 115.53,32.86 159.8,-48.2 254.56,15.54 51.1,34.36 199.72,-42.9 248.18,-76.77 60.67,-36.4 128.07,-50.99 191.61,-76.76 25.9,-10.51 46.08,-55.18 78.47,-41.12 76.1,33.02 120.35,15.04 153.29,-60.32 25.8,-59.05 158.84,-182.2 218.07,-200.14 78.33,-23.73 131.09,-228.37 157.85,-297 23.31,-18.53 44.79,-84.47 66.61,-113.32 27.24,-36.03 66.33,-67.95 84.85,-109.67 13.91,-31.36 2.43,-74 20.08,-101.44 37.17,-57.82 66.35,-42.99 79.38,-127.94 7.88,-51.34 49.36,-196.72 109.49,-211.1 31.46,-7.53 75.23,0.76 105.84,9.14 70.11,19.18 60.66,-2.81 104.93,-44.78 84.85,-38.02 138.03,8.17 169.71,-103.27 14.48,-50.93 10.27,-97.13 20.99,-145.31 10.05,-45.21 58.45,-72.34 69.34,-116.06 18.8,-75.51 -78.33,-55.13 -47.45,-148.04 8.48,-25.54 -31.21,-29.3 -42.88,-49.35 -21.88,-37.56 -14.41,-85.59 -50.18,-118.81 -15.29,-74.19 -60.25,-57.63 -94.9,-107.83 -13.55,-19.62 -5.14,-89.15 -5.47,-114.24 -1.33,-100.45 92.74,-97.93 113.14,-175.46 9.03,-34.36 -4.88,-61.21 20.07,-92.3 33.14,-41.31 40.37,-57.83 53.84,-110.58 89.72,-132.51 -191.69,-177.8 -189.79,-299.75 0.67,-42.8 -1.58,-82.57 44.71,-95.95 81.34,-23.53 -2.76,-78.61 -7.3,-122.46 -2.86,-27.56 43.07,-46.63 56.57,-71.28 13.81,-25.24 15.27,-63.62 20.99,-92.3 6.6,-35.24 -5.91,-67.14 23.72,-94.13 30.96,-28.22 96.84,-95.67 57.48,-143.48 -33.97,-41.28 -39.03,-25.27 -40.14,-84.99 -1.15,-62.39 -27.95,-132.3 -23.73,-194.65 2.57,-38.07 34.24,-50.34 51.1,-80.42 21.02,-37.48 22.6,-85.95 33.76,-127.03 33.35,-58.47 34.52,-33.61 89.42,-42.04 50.41,-7.75 84.71,-55.13 124.09,-82.25 36.49,-25.12 62.6,-26.12 105.84,-27.41 58.55,-1.74 114.24,-112.17 181.57,-138.91 51.04,-20.28 119.38,-17.82 153.29,-67.63 26.17,-38.46 32.33,-86.04 67.52,-117.89 45.71,-41.35 135.62,-6.46 154.2,-60.31 33.69,-97.68 81,-52.27 156.94,-62.14 58.46,-7.1 101.66,-59.38 164.23,-58.49 134.99,1.91 148.96,-175.72 298.37,-106.01 86.07,40.15 132.4,47.43 222.63,11.88 33.58,-13.22 120.5,-83.29 152.38,-61.23 22.18,15.34 14.91,81.04 24.63,107.84 16.48,45.48 91.99,7.3 107.67,73.11 18.26,76.6 16.04,102.59 80.29,156.27 123.75,17.66 241.57,102.33 375.01,95.95 41.97,-2.01 74.96,-44.95 104.93,-2.74 59.33,83.59 71.95,79.61 166.97,59.4 64.57,-13.74 63,162.35 23.73,195.57 l -105.85,89.56 c -55.23,46.73 -91.88,-38.67 -169.71,10.05 -37.04,24.02 -59.51,15.52 -83.94,63.06 -29.59,57.55 -27.36,119.18 -108.58,98.7 -99.38,-25.07 -149.7,2.24 -179.75,94.13 l -104.01,318.02 c -7.25,37.29 -44.43,62.82 -31.03,104.18 7.48,23.12 25.08,58.93 25.55,82.25 1.05,52.56 -39.46,100.13 -33.76,159.02 4.14,42.73 78.57,54.08 92.16,105.09 -43.55,76.89 -50.82,120.92 10.03,194.65 66.38,80.41 210.27,178.23 301.1,77.68 44.23,-48.95 72.71,-143.67 143.26,-152.61 27.45,-3.47 49.86,14.01 78.46,5.48 34.87,-10.39 66.97,-46.61 99.46,-64.88 100.56,-40.33 115.66,-114.87 153.29,-210.19 30.52,-77.29 59.5,-91.84 123.17,-46.61 40.89,29.04 187.2,49.58 173.37,111.49 -4.81,21.52 -31.59,49.89 -18.25,72.2 16,26.78 41.23,42.88 57.48,74.02 v 0 l 8.21,49.35 c 44.02,16.49 90.34,19.12 133.22,35.64 38.71,14.9 37.44,36.63 55.65,69.45 36.4,65.64 79.38,39.55 79.38,131.6 0,89.21 58.57,109.89 126.83,152.62 29.3,19.55 115.82,76.23 114.06,114.23 -0.81,17.68 -24.64,32.33 -24.64,56.66 0,46.04 35.92,35.02 13.69,93.21 -31.43,82.29 215.24,269.84 260.95,341.79 3.73,-0.12 6.56,-0.42 10.04,0.91 18.86,37.92 22.78,48.29 63.87,61.23 32.91,10.37 84.17,99.63 108.58,128.86 27.97,33.5 84.11,78.21 127.74,87.73 42.91,9.37 21.64,106.84 31.93,155.36 17.89,84.28 -33.28,169.16 -51.09,248.57 21.37,36.06 -1.13,81.28 0.91,120.63 2.76,53.4 45.62,80.28 45.62,139.82 0,39.55 12.57,133.62 53.85,155.4 33.72,-27.16 54.59,-74.12 108.56,-67.67 56.49,6.76 102.31,112.73 147.81,151.71 23,19.69 150.06,95.95 143.26,123.37 40.94,13.65 131.19,12.61 145.98,58.49 14.93,46.29 26.76,98.59 51.1,140.73 38.24,66.18 61.54,5.55 105.84,-0.91 41.62,-6.06 11.8,120.15 72.08,141.65 40.24,14.34 44.97,20.19 63.87,56.66 15.3,29.5 78.48,68.44 107.67,82.25 48.23,13.26 66.24,64.16 110.4,87.73 49.04,26.16 105.04,24.54 156.03,42.95 42.29,15.26 59.04,54.37 95.8,77.68 l 174.28,110.58 c 38.86,24.65 89.8,38.06 135.04,39.29 l 133.21,3.66 c 73.83,2.02 17.92,117.97 94.89,108.75 98.26,-11.78 77.14,27.33 126.83,84.99 69.93,21.98 68.32,64.68 160.59,42.95 92.57,-21.81 175.61,-13.51 262.78,-71.28 143.71,-95.26 249.33,-78.7 349.46,70.37 36.85,54.85 97.04,125.07 146.9,168.15 56.28,48.64 23.09,128.34 53.83,194.65 22.8,22.04 35.36,63.3 70.26,72.2 85.54,21.8 96.44,58.36 166.97,102.35 19.28,12.03 111.26,20.92 140.51,24.67 90.47,11.63 150.83,-33.81 178.84,-112.4 4.38,-12.28 166.95,-113.32 185.22,-113.32 17.84,16.24 17.86,46.48 47.45,53.92 26.81,6.73 94.52,-9.2 124.09,-11.88 49.6,-9.94 92.42,-43.54 141.43,-50.27 58.57,-8.04 93.94,-50.23 135.04,15.54 21.9,35.03 14.48,89.75 54.74,112.41 l 66.61,26.5 v 0 l 395.08,-0.92 c 72.54,0 158.43,-0.77 227.19,22.85 29.6,10.16 65.02,35.84 92.16,52.09 42.1,25.19 98.15,64.55 132.3,97.78 l 1032.87,808.76 -18.25,1411.02 v 0 l -938,890.12 -695.27,511.77 -487.23,400.27 -1397.83,-153.53 -304.75,665.3 23.72,429.51 231.76,204.71 -7.3,175.46 16.42,557.46 18.25,553.81 204.38,427.69 317.53,385.65 -56.57,484.35 -465.34,1016.22 -193.43,420.38 -468.99,564.77 -427.01,358.24 -233.58,243.09 -458.03,482.52 -197.09,82.25 -709.86,-29.25 -1062.06,573.91 -531.05,28.33 -843.08,-135.25 c -292.42,-23.57 -593.42,9.46 -834.87,192.83 -85.76,65.14 -169.47,166.31 -234.33,253.6 z"
                id="path5"/>
        <path
                class="fil0 str1"
                d="m 12412.91,1548.66 c 14.03,-79.07 69.16,-117.04 -11.86,-189.17 -58.24,-51.86 -28.23,-99.8 -116.8,-124.29 -52.07,-14.39 -67.83,-47.63 -93.06,-92.3 -25.73,-45.53 -53.89,-94.13 -73,-142.9 H 11818 c -2.43,40.49 12.23,84.83 -1.82,125.54 -16.46,47.72 -40.76,41.55 -67.52,72.19 -27.36,31.31 2.11,40.06 2.74,67.63 0.67,29.12 -39.08,142.97 0,155.36 61.45,19.47 38.25,92.97 53.83,142.56 45.84,53 18.09,166.4 64.78,193.74 21.76,12.75 46.19,-6.84 68.43,14.62 25.15,24.25 5.88,30.95 45.63,43.87 42.99,13.96 37.28,106.86 89.41,57.57 47.98,-45.38 75.27,12.82 121.36,21.02 37.94,6.74 86.22,-37.39 128.65,-42.04 46.16,-5.05 163.67,28.35 205.29,52.09 38.91,22.18 76.39,67.53 125.92,62.15 97.43,-10.58 -52.86,-193.31 -81.21,-224.81 -42.26,-46.98 -176.8,-95.66 -178.83,-153.53 z m 1700.76,1460.36 c 0,-153.91 6.34,-214.23 -145.99,-254.97 -129.04,-34.5 -145.3,-149.58 -230.84,-228.46 -49.58,-45.73 -163.76,11.89 -236.32,-31.08 -15.53,-9.2 -67.94,-53.82 -83.94,-51.17 -35.2,5.83 -22.38,97.73 -13.69,118.8 22.03,53.46 3.96,60.9 11.86,112.41 9.58,62.52 50.81,279.75 96.72,318.02 23.56,31.77 25.85,97.95 62.96,116.06 45.05,22 182.7,-130.06 228.1,-54.83 28.24,46.78 54.59,106.89 71.17,159.01 11.78,37.06 25.28,104.74 76.65,76.77 25.49,-13.87 241.71,-28.65 156.93,-100.53 -60.29,-51.13 -8.43,-76.97 8.22,-143.47 z m -2572.13,92.3 c -12.65,-18.25 -12.21,-89.55 -0.91,-109.66 30.21,-53.72 111.89,-181.61 184.31,-154.45 24.25,9.1 52.4,32.64 73.9,47.53 30.46,21.11 44.37,22.87 62.05,56.66 20.87,39.91 118.27,53.67 96.72,101.43 -48.17,106.7 -129.02,54.69 -210.78,48.44 -23.44,-1.79 -74.41,6.91 -91.24,23.76 -23.45,23.5 -31.69,36.33 -68.43,25.59 z m -1839.45,409.42 c 7.96,-34.76 -30.33,-130.74 -0.92,-144.4 17.44,9.82 29.67,65.48 52.92,55.75 24.26,-10.14 36.38,-43.09 61.14,-55.75 59.08,-30.19 107.48,-17.8 166.06,-69.45 116.47,-102.72 94.52,-77.95 190.7,22.85 23.29,24.42 169.58,144.24 149.63,170.89 -33.03,-2.96 -56.84,-44.94 -95.8,-47.52 -57.83,-3.82 -86.5,89.57 -145.08,115.15 -82.08,35.86 -115.67,192.98 -223.54,87.73 -47,-45.85 -159.37,19.55 -149.64,-78.6 z m 3961.75,2537.81 c 0,-52.39 -36.94,-66.95 -48.35,-110.58 15.72,-42.09 42.97,-36.64 20.98,-87.73 -8.48,-19.72 -41.18,-94.03 3.65,-95.04 25.2,-0.57 45.06,16.62 73,14.62 65.03,-4.65 78.31,-94.78 152.37,-85.91 56.51,6.76 102.31,112.73 147.81,151.71 23,19.69 150.06,95.95 143.26,123.37 -74.01,59.11 -149.93,-163 -222.64,-64.89 -42.95,57.94 -12.25,236.82 -118.61,242.18 -22.49,-12.66 -27.22,-70.82 -70.26,-44.78 -30.86,18.66 -42.59,21.22 -70.26,-8.23 z m 270.53,617.6 c -15.54,-12.19 -20.16,-54.42 -5.48,-68.54 12.43,-11.97 39.28,-10.5 49.73,3.65 15.64,21.15 10.87,57.67 19.16,82.71 3.6,10.86 5.81,22.63 -8.67,25.59 -19.33,3.94 -29.18,-5.27 -38.77,-21.02 z m -3110,1767.59 c -66.1,-33.05 -9.04,-95.12 33.76,-113.32 42.72,-18.18 97.6,1 144.16,-10.96 42.2,-10.85 69.3,-56.65 110.41,-71.28 36.17,-12.88 63.19,-4.07 98.54,-27.42 35.66,-23.54 59.74,-61.33 99.45,-79.51 114.65,-52.48 1.55,93.21 -7.29,115.15 -33.77,83.87 -55.78,25.32 -111.32,58.49 -31.6,18.86 -32.02,55.88 -74.82,69.45 -63.85,20.23 -70.51,9.36 -120.44,59.4 -40.42,40.52 -93.79,34.73 -145.08,34.73 z m 6973.68,3317.35 c -70.83,-4.2 4.4,-77.18 27.38,-90.48 37.37,-21.62 58.88,-54.4 91.24,-81.33 54.28,-45.19 116.26,-78.39 169.71,-124.29 41.97,-36.05 129.94,-141.79 181.57,-144.39 47.34,28.44 -39.78,136.6 -69.34,153.53 -72.62,41.62 -166,66.9 -229.93,123.37 -62.15,54.88 -54.18,126.38 -137.78,158.1 z"
                id="path6"
                style="fill:#3973d6;fill-opacity:1"/>
        <g
                id="_2630598079056">
   <path
           class="fil4 str2"
           d="m 1000,3489.72 c 30.5,-7.92 62.5,-11.46 91.51,-23.76 46.57,-19.73 86.34,-35.16 124.09,-74.03 41.34,-42.55 60.83,-108.12 114.05,-137.08 91.52,-49.82 175.44,-8.03 274.64,-6.4 131.93,2.16 153.65,-124.86 177.01,-232.12 25.09,-115.26 48.31,-173.44 128.66,-263.19 49.04,-54.77 58.56,-127.18 111.31,-180.03 57.82,-57.91 122.68,-95.36 164.24,-169.07 14.79,-26.22 37.57,-37.46 53.83,-62.14 51.93,-78.84 45.55,-120.3 137.78,-169.07 38.4,-20.31 76.04,-104.07 105.84,-140.73 28.72,-35.34 74.66,-43.83 98.54,-83.17 35.86,-59.09 -13.87,-159.3 101.28,-160.84 97.65,-1.31 83.81,-59.24 110.41,-137.08 31.29,-91.59 271.65,-116.44 360.4,-82.25 84.33,32.5 87.66,138.72 204.39,125.2 133.57,-15.48 225.78,-3.51 352.2,43.87 73.79,27.66 123.84,77.63 208.94,59.4 142.22,-30.46 286.63,-15.09 428.84,13.71 83.77,16.97 145.17,-47.71 225.37,-57.57 96.25,-11.83 164.36,13.99 265.52,-16.45 49.69,-14.96 87.41,13.69 136.86,4.57 45.82,-8.46 80.71,-45.74 126.83,-57.58 72.88,-18.7 139.24,4.54 202.56,-55.74 48.04,-45.75 70.9,-107.29 125,-148.05 74.56,-56.19 179.66,-39.46 262.78,-92.3 104.32,-66.3 128.22,-142.22 157.85,-251.31 11.93,-43.92 3.04,-91 4.56,-136.51"
           id="path7"/>
            <path
                    class="fil4 str2"
                    d="m 5305.1,1628.17 c 41.97,3.96 84,7.48 125.91,11.88 79.89,8.38 135.54,82.24 231.76,82.24 334.04,0 602.58,-356.74 831.22,88.65 16.99,33.09 34.37,90.98 52.01,124.29 20.03,37.84 68.97,45.64 83.03,84.07 35.63,97.43 31.85,137.74 132.3,194.66 152.24,86.26 204.12,159.36 345.81,9.13 143.7,-152.38 282.86,-47.56 405.12,64.89 18.82,17.3 42.63,46.15 68.43,62.14 46.47,28.81 104.54,13.06 151.46,38.38 21.39,11.55 31.65,35.99 50.19,51.18 25.74,21.11 57.28,33.67 81.2,56.66"
                    id="path8"/>
            <path
                    class="fil4 str2"
                    d="m 1000,11062.03 c 32.02,-36.25 59.37,-77.25 96.07,-108.75 30.17,-25.88 72.99,-108.23 93.98,-144.39 120.64,-207.88 346.12,-281.82 453.48,-492.58 30.22,-59.32 9.85,-141.55 51.09,-196.48 66.79,-88.99 163.06,-160.1 248.18,-229.38 54.14,-44.05 63.3,-78.68 71.17,-145.31 7.3,-61.77 60.31,-136.77 93.98,-188.25 21.06,-32.19 30.99,-73.6 58.4,-105.1 20.99,-24.11 54.06,-42.72 82.12,-56.66 34.35,-17.08 62.03,-96.36 106.75,-127.94 62.42,-44.06 40.19,-59.39 69.35,-115.15 12.55,-23.98 47.03,-9.16 56.57,-44.78 20.99,-78.41 16.65,-67.65 91.24,-97.78 65.01,-26.27 71.92,-107.07 96.72,-168.15 40.09,-98.77 87.95,-93.67 172.44,-119.72 48.21,-14.87 71.55,-125.95 122.27,-122.46 71.91,4.95 46.12,-21.27 100.37,-49.34 66.95,-34.63 129.69,-0.64 185.22,-79.51 53.82,-76.45 128.76,-141.8 161.5,-229.38 20.83,-55.75 137.09,-206.39 165.15,-269.59 56.61,-127.54 32.87,-275.91 61.13,-411.24 7.58,-36.31 -1.49,-80.37 0,-117.89 6.72,-168.27 -72.42,-335.3 0.91,-492.58 19.01,-40.77 51.5,-67.77 76.65,-104.18 48.27,-69.86 28.74,-165.19 79.38,-231.21 56.99,-74.32 63.29,-155.64 139.6,-229.38 83.24,-80.45 192.73,-201.54 281.94,-274.16 153.34,-124.81 260.8,-263.4 385.04,-418.55 62.32,-77.81 95.89,-141.5 136.87,-232.12 20.98,-46.39 49.3,-102.96 98.54,-123.38 71.5,-29.64 130,-41.2 183.4,-100.52 107.17,-119.06 298.4,-213.31 453.47,-219.33 117.41,-4.56 220.95,-3.71 313.88,-88.65 118.57,-108.39 169.1,-119.35 326.65,-180.94 173.21,-67.7 337.44,-21.21 490.88,-106.92 47.43,-26.49 94.9,-53.01 142.34,-79.51 81.59,-45.57 107.2,-3.5 191.61,-77.68 59.9,-52.63 157.26,-68.29 234.5,-78.59 3.42,-0.45 2.94,-7.8 6.38,-8.23 88.55,-11.17 122.78,-82.09 208.04,-108.75 31.91,-9.98 63.56,-2.59 92.15,-22.84 26.23,-18.57 43.65,-46.08 69.35,-64.89 56.75,-41.53 106.13,-33.48 164.23,-96.87 88.21,-96.23 88.53,-119.14 222.64,-106.01 90.53,8.87 191.95,-131.31 264.6,-180.03 3.53,-2.37 2.78,-8.74 6.39,-10.97 16.25,-10.01 40.93,-6.02 60.22,-11.88 69.23,-21.05 103.71,-71.88 158.76,-114.23 59.52,-45.78 135.19,-72.68 196.17,-118.8"
                    id="path9"/>
            <path
                    class="fil4 str2"
                    d="m 3933.72,6384.85 c 62.67,2.13 126.97,20.64 188.03,6.4 68.17,-15.89 133.89,2.33 200.73,-38.38 62.79,-38.23 108.08,-110 187.96,-115.15 197.97,-12.77 226.05,-183.28 361.32,-195.57 212.57,-19.31 249.2,-329.93 445.26,-396.62 36.55,-12.43 67.3,14.96 105.84,9.14 75,-11.33 120.28,-67.22 202.56,-51.18 82.12,16.02 127.32,103.2 209.85,85.91 100.5,-21.05 133.91,-15.74 229.93,-87.73 177.55,-133.14 267.27,-1.25 410.59,-76.77 201.24,-106.03 184.99,-15.68 354.02,16.45 90.68,17.24 154.13,-86.46 248.18,-73.11 68.2,9.67 111.76,52.3 184.31,23.76 122.22,-48.07 211.31,-77.76 343.07,-42.04 119.4,32.36 88.09,159.46 253.65,98.7 51.92,-19.06 58.6,-69.45 120.44,-69.45 111.99,0 108.3,-115.51 162.42,-186.43 72.79,-95.36 150.93,-125.55 266.42,-133.43"
                    id="path10"/>
            <path
                    class="fil4 str2"
                    d="m 11512.36,4329.56 c -37.71,31.07 -83.3,54.53 -113.14,93.22 -36.69,47.55 -71.66,85.18 -56.57,151.7 13.67,60.25 -32.75,54.2 -47.44,107.83 -25.65,93.69 56.46,137.35 -20.08,255.89 -42.02,65.06 -17.34,142.69 -60.22,197.39 -36.22,46.19 -86.76,58.98 -91.24,127.94 -8.29,127.67 16.57,115.91 -40.15,252.23 -49,117.79 -14.02,304.83 12.78,424.04 21.4,95.23 2.36,202.5 63.87,281.47 49.43,63.48 102.44,65.09 104.01,160.84 2.75,167.93 56.48,254.29 178.84,369.2 55.35,51.99 93.06,67.14 93.06,151.7 0,130.93 13.77,172.54 73,292.44 36.8,74.52 81.59,151.37 105.84,230.3 41.35,134.63 26.85,280.18 18.25,420.38 -9.36,152.46 -56.51,262.49 -237.23,243.09 -46.47,-4.98 -89.89,25.75 -134.84,38.63"
                    id="path11"/>
            <path
                    class="fil4 str2"
                    d="m 10794.23,8394.45 c -27.05,26.19 -55.04,51.47 -81.15,78.59 -47.78,49.65 -93.68,101.14 -140.51,151.7 -65.6,70.82 -103.96,43.72 -155.11,106.01 -116.78,142.23 -247.53,55.86 -323,193.74 -88.61,161.86 -395.51,239.32 -556.58,294.27 -190.35,64.95 -424.31,83.46 -578.47,210.19 -165.84,136.35 -202.91,225.36 -443.44,186.43 -54.45,-8.81 -91.43,-7.67 -117.59,0.29 -85.51,26.02 -56.17,125 -147.01,187.96 -97.85,67.82 -79.23,156.11 -144.17,230.3 -50.78,58 -125.86,28.32 -189.78,60.31 -49.02,24.52 -53.23,81.98 -100.37,107.84 -196.46,107.82 -400.83,202.42 -589.42,323.51 -80.87,51.93 -227.09,52.57 -319.35,96.87 -183.33,88.02 -317.17,272.25 -437.96,429.52 -101.61,132.28 -212.73,192.62 -379.57,184.6 -15.93,-0.76 -30.21,-0.81 -43.12,-0.12 -79,4.26 -108.55,36.45 -170.39,102.47 -101.39,108.25 -219.27,62.43 -299.27,215.67 -57.65,110.45 -228.96,218.85 -324.82,316.2 -226.47,230.02 -181.68,696.8 -507.31,798.72 -54.42,17.03 -140.17,58.83 -171.53,107.84 -19.94,31.18 -11.09,81.26 -34.68,106.01 -45.72,47.99 -133.52,40.36 -147.81,135.25 -11.87,78.88 -50.42,186.77 -45.62,257.71 8.83,130.22 -17.24,186.31 -100.36,292.44 -58.9,75.19 -49.96,143.81 -65.7,232.12 -13.31,74.63 -30.94,112.93 -69.34,177.29 -46.01,77.1 -4.75,149.42 -74.82,226.64 -81.36,89.66 -107.39,206.92 -136.22,322.4"
                    id="path12"/>
            <path
                    class="fil4 str2"
                    d="m 9771.46,5014.96 c 32.84,59.7 61.95,121.64 98.54,179.12 35.91,56.4 24.82,123.78 52.92,182.77 21.8,45.74 65.13,85.57 78.47,135.26 35.16,130.95 10.93,179.81 135.04,266.85 89.38,62.69 134.48,273.55 198.91,374.68 121.4,190.57 267.18,144.75 158.76,409.42 -47.03,114.83 -149.32,195.23 -138.69,327.16 9.54,118.53 6.57,209.2 -38.32,321.68 -25.55,64 -83.46,163.16 -147.81,191.91 -155.27,69.37 -129.62,199.36 -268.26,283.3 -133.67,80.92 -212.56,77.52 -259.12,248.58 -51.73,190.1 -209.67,116.76 -317.53,224.81 -102.38,102.55 -151.76,257.23 -259.12,352.75 -61.13,54.4 -161.3,97.52 -177.01,182.77 -30.14,163.61 -193.74,207.48 -186.14,385.66 7.64,179.08 -231.13,377.68 -303.72,533.99"
                    id="path13"/>
            <path
                    class="fil4 str2"
                    d="m 8247.72,6734.86 c -16.42,65.19 -24.01,133.29 -49.27,195.57 -25.62,63.19 -43.84,165.29 -20.08,228.47 27.72,73.71 55.82,104.52 32.85,186.43 -15.45,55.08 -23.72,119.98 -23.72,177.29 0,82.42 72.99,144.33 72.99,243.09 0,127.78 14.44,236.11 10.95,367.37 -4.94,185.75 -54.8,135.51 -213.51,208.36 -73.66,33.82 -74.13,145.28 -151.46,175.47 -80.96,31.62 -170.52,49.39 -248.18,89.55 -131.61,68.08 -87.11,179.23 -180.66,270.51 -104.47,101.92 -227.29,204.09 -359.49,268.68 -103.07,50.37 -223.98,129.76 -286.5,222.98 -64.13,95.6 -115.35,136.09 -195.26,213.85 -110.4,107.41 -47.09,263.19 -142.34,385.65 -103.57,133.18 -140.92,320.88 -135.04,482.52 4.08,112.37 -3.53,300.89 -51.09,400.28 -55.37,115.72 -202.57,273.54 -260.28,385.53"
                    id="path14"/>
            <path
                    class="fil4 str2"
                    d="m 6985.19,17413.74 c 6.62,-47.94 17.93,-95.47 19.86,-143.8 4.68,-117.4 68.47,-238.93 58.39,-339.96 -11.54,-115.75 -23.12,-231.53 -34.67,-347.27 -6.66,-66.82 -43.8,-129.27 -43.8,-197.4 0,-120.61 91.85,-184.62 96.72,-297.92 4.99,-116.26 -25.54,-274.46 16.42,-383.82 43.18,-112.57 76.71,-243.7 149.64,-341.79 62.06,-83.45 58.06,-189.25 109.49,-252.23 49.29,-60.38 137.54,-78.63 191.61,-144.39 76.64,-93.21 153.3,-186.44 229.93,-279.64 90.1,-109.59 199.69,-209.01 295.62,-316.2 213.3,-238.36 546.79,-455.79 680.66,-747.55 110.7,-241.25 227.8,-479.71 332.12,-723.78 49.22,-115.14 85.57,-195.61 56.57,-321.68 -23,-99.95 7.82,-178.25 -9.12,-263.2 -12.79,-64.18 -27.59,-108.18 -23.73,-177.29 4.8,-85.74 28.08,-165.46 32.85,-257.71 11.12,-214.93 45.96,-80.36 155.11,-206.53 40.37,-46.68 17.01,-117.75 20.07,-175.46 7.52,-141.36 79.88,-284.37 173.36,-391.14 67.91,-77.58 26.8,-186.17 87.59,-274.16 53.42,-77.3 94.97,-58.81 104.02,-168.15 8.76,-105.87 59.08,-175.87 122.26,-257.71 70.53,-91.34 159.51,-170.13 257.31,-228.47 145.35,-86.69 306.05,-207.44 465.33,-250.4 153.98,-41.52 287,-156.2 441.61,-122.46 158.1,34.49 217.41,-63.98 355.84,-89.56 109.86,-20.31 354.44,49.25 439.78,118.81 155.88,127.08 371.63,113.04 470.81,-78.6 31.01,-59.91 73.65,-114.08 120.44,-162.67 44.36,-46.07 54.66,-50.57 83.62,-98.84 37.78,-63 22.96,-84.76 38.46,-115.53 8.7,-17.26 27.31,-28.67 46.02,-69.31 58.77,-127.59 -64.59,-188.94 -4.68,-320 9.93,-21.71 16.3,-40.83 28.68,-66.43 11.48,-23.71 27.98,-65.74 39.12,-91.61 56.64,-131.48 33.96,-197.19 69.74,-315.57 50.64,-167.59 138.27,-104.77 206.42,-289.95 37.41,-101.65 20.41,-178.38 129.12,-244.32 37.45,-22.71 76.59,-5.94 120.44,-72.62 40.45,-61.52 16.75,-137.91 101.82,-245.82 19.22,-24.38 19.11,-37.84 47.15,-50.46 168.4,-75.79 98.49,-52.8 184.64,-195.7 33.7,-55.91 119.04,-98.17 179.44,-118.35 124.86,-41.74 73.45,-90.86 135.04,-178.31 15.52,-22.04 57.88,13.92 122.6,-71.49 41.77,-55.11 82.56,-92.11 153.46,-89.2 26.24,1.08 43.21,-1.47 68.18,-3.45"
                    id="path15"/>
            <path
                    class="fil4 str2"
                    d="m 8219.99,18129.56 c 8.03,-44.67 6.25,-92.28 24.08,-134.01 23.56,-55.11 114.8,-115.84 135.04,-159.02 18.54,-39.54 -19.33,-86.94 -3.65,-135.25 41.06,-126.49 118.98,-129.59 229.93,-148.04 70.89,-11.79 82.16,-72.58 136.86,-96.87 106.59,-47.33 188.81,-41.21 239.05,-171.81 35.91,-93.33 45.68,-74.51 124.09,-107.84 38.22,-16.25 66.53,-80.78 100.37,-104.18 68.39,-47.27 142.02,-81.63 228.1,-56.66 62.67,18.18 69.07,48.23 122.27,-10.97 125.47,-139.65 138.5,-13.07 273.73,-58.48 77.78,-26.12 131.56,-37.79 209.85,-53.01 108.72,-21.14 174.49,-183.01 288.33,-202.88 145.29,-25.35 252.39,-212.13 335.77,-330.82 53.01,-75.47 177.34,-9.1 248.18,-76.76 71.05,-67.88 95.29,-176.68 144.16,-259.54 112.33,-190.47 342.12,-163.62 496.36,-297.92 90.24,-78.56 143.35,-168.77 246.35,-244.92 159.2,-117.72 257.15,-202.45 352.2,-365.55 69.38,-119.04 111.81,-242.55 135.04,-378.34 16.94,-99 61.64,-187.91 122.26,-266.85 126.76,-165.09 336.51,-300.74 445.26,-469.72 68.41,-106.31 45.28,-222.71 127.74,-327.17 200.93,-254.5 377.15,-527.62 565.7,-791.41 138.62,-193.94 279.51,-415.73 458.04,-575.74 70.25,-62.96 129.38,-139.83 208.03,-191.91 70.7,-46.82 74.5,-14.37 137.9,10.45 56.24,22.01 64.83,19.88 126.76,9.92 37.35,-6.01 79.74,-27.41 131.21,-32.64 38.77,-3.93 33.46,-13.39 78.38,-2.08 15.38,3.87 166.49,-29.34 208.79,-29.34 62.11,0 70.42,-2.83 132.86,10.49 59.86,12.78 165.21,-28.01 238.12,-25.38 18.24,0.66 60.47,-3.3 85.42,-3.3 44.9,0 88.34,-3.96 132.01,4.53 50.17,9.75 106.48,-24.72 114.96,-78.1 7.94,-49.94 30.1,-85.12 36.89,-138.19 9.75,-76.21 26.2,-141.73 90.39,-189.09 9.71,-7.16 19.49,-11.79 27.59,-20.83 43.15,-48.14 30.51,-50.25 49.75,-101.31 21.69,-57.55 27.95,-144.82 62.27,-199.66 23.1,-36.93 39.39,-86.18 68.79,-125.54 23.5,-31.47 32.54,-49.99 61.43,-82.39 28.24,-31.66 43.61,-51.19 75.26,-81.46"
                    id="path16"/>
            <path
                    class="fil4 str2"
                    d="m 17561.72,12375.26 c -35.89,58.48 -95.67,107.91 -107.67,175.46 -38.69,217.78 -246.29,363.93 -228.1,619.6 10.1,141.88 96.71,217.33 96.71,365.55 0,192.15 72.64,256.98 124.09,424.04 39.07,126.84 62.73,143.17 189.79,133.42 120.27,-9.22 224.59,191.97 344.89,243.09 97.33,41.37 195.71,167.49 242.71,259.54 38.89,76.19 47.1,248.47 113.14,294.26 37.28,25.86 114.55,6.03 118.61,65.8 4.95,72.84 31.46,254.04 -27.37,297.92 -94.71,70.66 -265.5,-4.6 -277.38,116.98 -13.41,137.34 -33.52,187.46 -82.12,303.4 -60.54,144.44 -78.95,355.97 -107.66,509.94 -21.2,113.68 4.24,214.54 -10.95,325.34 -16.7,121.89 -132.88,209.83 -111.32,341.78 19.53,119.47 39.76,204.73 131.39,303.41 166.38,179.21 150.47,268.22 54.75,480.69 -39.24,87.09 -97.07,241.03 -51.1,332.65 48.45,96.54 51.01,179.87 23.72,292.44 -60.78,250.64 -479.97,394.82 -669.71,537.35 -56.52,42.46 -166.39,115.15 -239.06,115.15 -196.97,0 -128.44,-20.09 -264.6,124.29 -105.9,112.28 -285.84,-37.75 -395.99,25.59 -127.34,73.22 -249.2,25.48 -352.2,106 -104.12,81.41 -131.04,36.98 -235.4,73.11 -167.28,57.93 -252.95,238.75 -381.39,352.76 -183.02,162.44 -329.44,141.81 -565.7,169.98 -81.85,9.76 -149.84,69.53 -220.81,111.49 -61.96,36.62 -118,82.47 -177.01,123.71"
                    id="path17"/>
            <path
                    class="fil4 str2"
                    d="m 19400,6008.24 c -12.13,83.72 -34.72,166.59 -36.4,251.16 -1.26,63.76 -2.52,109.4 -13.54,172.06 -11.45,65.09 -6.41,111.22 29.2,166.32 47.91,74.13 15.38,188.97 69.35,237.61 99.96,90.1 152.45,157.69 151.46,292.44 -1.21,164.31 -27.12,202.33 43.79,347.27 46.72,95.51 -28.82,169.12 51.1,281.47 50.78,71.39 10.97,121.46 7.3,201.05 -3.13,67.96 14.4,71.55 51.09,118.8 63.95,82.37 -35.05,181.76 96.72,235.78 73.6,30.17 130.97,134.72 149.64,208.36 14.84,58.55 -2.11,142.92 16.42,208.36 22.37,78.99 47.19,165.93 100.37,228.47 26.65,31.35 69.64,43.86 104.46,65.8"
                    id="path18"/>
            <path
                    class="fil4 str2"
                    d="m 13313.48,3258.51 c 68.73,12.18 140.19,13.92 206.21,36.55 148.06,50.75 249.38,348.85 368.62,466.08 172.08,169.16 428.41,251.18 609.5,422.2 215.98,203.95 490.14,259.7 770.08,186.43 170.87,-44.72 191.23,-114.08 270.08,-254.05 61.77,-109.63 247.01,-175.93 348.54,-265.03 234.33,-205.62 247.38,-261.59 560.23,-193.74 169.48,36.76 291.61,-79.18 459.86,-63.97 95.78,8.66 165.55,-102.28 253.65,-140.73 67.73,-29.56 112.15,-64.89 139.06,-104.48 129.72,-190.79 -142.78,-481.71 -170.08,-710.69 -13.07,-109.63 -23.51,-163.35 -62.05,-268.68 -41.89,-114.52 -21.24,-161.76 21.9,-263.19 28.83,-67.76 -28.83,-77.1 -38.32,-133.43 -14.79,-87.82 156.76,-197.98 209.86,-259.54 99.78,-115.65 118.96,-236.72 187.96,-361.89 21.3,-38.63 33.61,-73.61 40.14,-118.8 7.81,-53.97 6.4,-98.69 -3.65,-151.7 -5.14,-27.09 -14.6,-53.23 -21.89,-79.85"
                    id="path19"/>
            <path
                    class="fil4 str2"
                    d="m 17299.31,3347.77 c -3.16,67.11 -8.32,134.18 -9.49,201.35 -1.98,113.91 91.66,167.62 135.03,263.19 76.4,168.37 -44.05,355.66 -52.92,520.91 -4.29,79.89 88.36,173.83 107.67,257.71 27.26,118.45 8.97,233.25 3.65,352.75 -5.85,131.28 -67.77,359.26 -156.94,458.76 -42.83,47.8 -111.78,121.25 -182.48,115.15 -113.05,-9.75 -195.58,-136.38 -228.11,-230.29"
                    id="path20"/>
            <path
                    class="fil4 str2"
                    d="m 11227.69,1000 c 52.92,38.19 99.89,86.46 158.76,114.57 43.7,20.86 95.77,16.03 142.34,29.25 70.88,20.12 139.65,47.11 209.47,70.66"
                    id="path21"/>
  </g>
        <path
                class="fil4 str3"
                d="m 4368.95,1786.27 c 91.33,-33.84 47.84,-12.02 105.53,-14.66 34.3,-1.56 145.83,-191.3 165.69,-221.35 70.83,-107.18 86.5,-2.63 180.11,-12.23 11.35,-1.16 23.78,-2.43 35.38,-4.68 88.92,-17.25 176.89,-46.2 251.36,-98.79 62.81,-44.34 204.73,-49.21 277.38,-32.27 44.42,10.36 140.56,-35.96 201.94,-35.96 42.38,0 121.09,-49.86 134.6,-96.33 11.62,-39.93 22.35,-43.65 21.08,-94.83 -0.38,-15.43 8.69,-69.51 16.54,-83.34 16.57,-29.19 27.56,-61.22 41.34,-91.83"
                id="path22"/>
        <path
                class="fil4 str3"
                d="m 7219.96,3376.06 c -49.24,-58.27 -21.08,-37.8 -74.53,-74.14 -40.51,-27.55 -13.41,-92.5 -31.27,-130.64 -11.08,-23.67 -3.3,-43.08 -32.28,-89.58 -34.95,-56.05 -40.98,-88.99 3.07,-136.16 23.01,-24.65 95.03,-107.79 31.8,-124.41 -80.75,-21.23 -176.16,-80.2 -75.12,-156.95 46.18,-35.07 47.83,-83.03 20.97,-130.21 -7.99,-14.04 -17.83,-13.26 -31.42,-45.07 -8.85,-20.72 -37.02,-57.36 -49.75,-81.6 -34.06,-64.85 -26.75,-108.93 -57.3,-153.79 -14.24,-20.92 -57.42,-30.67 -79.95,-49.75 -64.75,-54.81 -128.38,-43.08 -166.59,-135.46 -8.95,-21.65 3.6,-15.45 -18.19,-47.95 -17.79,-26.55 -34.74,-58.65 -61.75,-77.3 -52.26,-36.07 -11.95,-73.35 -52.78,-132.01 -21.96,-31.54 -54.81,-162.24 -23.15,-201.22 31.62,-38.95 82.46,-42.9 131.06,-53.73 83.04,-18.52 126.93,13.29 236.29,-23.57 6.52,-2.2 16.01,-0.74 19.6,-6.61 44.99,-73.57 36.72,-70.12 62.42,-147.32 18.64,-55.97 110.95,-222.06 187.28,-173.49 24.22,15.42 170.75,61.48 199.96,66.71 129.32,23.19 218.5,6.13 323.45,106.12 40.03,38.13 52.94,72.7 114.48,95.48 37.24,13.78 157.31,70.53 192.25,90.53"
                id="path23"/>
        <path
                class="fil4 str3"
                d="m 7988.51,1563.94 c 50.62,-38.44 83.24,-55.94 127.75,-100.45 75.57,-75.59 73.12,-95.27 70.68,-194.33 -0.55,-22.38 14.21,-75.51 13.23,-115.33 -0.14,-5.89 2.67,-10.62 3.31,-16.53 4.96,-45.71 8.82,-91.53 13.23,-137.3"
                id="path24"/>
        <path
                class="fil4 str3"
                d="m 7988.51,1563.94 c 26.49,40.15 66.68,97.27 100.44,132.86 31.64,33.37 27.2,35.09 68.23,68.46 51.69,42.02 70.65,61.92 116.18,107.48 52.83,52.86 36.62,41.64 72.9,101.16 30.31,49.71 57.4,133.98 69.31,191.97 6.87,33.48 51.47,162.11 96.57,150.05 59.63,-15.95 106.86,-80.46 155.07,-117.83 8.46,-6.55 52.18,-48.62 60.48,-52.07 42.94,-17.84 88.41,-28.95 132.61,-43.42"
                id="path25"/>
        <path
                class="fil4 str3"
                d="m 4259.7,6633.67 c -12.34,64.96 -5.28,77.76 -42.48,131.82 -26.16,38.03 -4.43,105.62 34.02,127.33 14.76,8.33 92.46,63.4 93.59,77.3 2.21,27.21 -81.41,109.38 -54.71,136.02 12.8,12.77 98.1,-0.95 117.37,-12.1 63.36,-36.69 152.34,-107.26 215.11,-129.4 43.8,-15.44 94.19,-47.92 143.82,-63.84 76.89,-24.66 191.38,-80.44 266.1,-116.46 32.42,-15.62 61.1,-35.07 96,-46.96 72.06,-24.56 130.18,-57.29 210.02,-44.23 45.25,7.4 106.99,41.94 130.49,81.56 27.07,45.65 37.3,61.63 57.36,113.29 17.35,44.7 75.47,77.58 121.52,77.58 66.85,0 214.12,-28.45 237.56,68.51 4.34,17.94 -1.95,40.98 9.77,77.01 21.25,65.32 12.21,45.58 51.42,103.61 1.24,1.83 2.26,3.88 3.73,5.53 59.28,66.75 93.25,59.64 138.76,115.33 31.91,39.03 39.82,55.85 47.67,108.77 7.68,51.7 -37.44,208.27 50.75,181.19 101.93,-31.29 104.99,49.01 205.9,63.13 20.89,2.92 70.86,7.29 87.74,12.79 32.06,10.45 63.79,21.88 95.69,32.82"
                id="path26"/>
        <path
                class="fil4 str3"
                d="m 16964.93,6347.58 c 117.61,28.65 239.01,10.27 358.89,11.57 48.74,0.52 80.48,-7.57 136.59,-2.88 86.02,7.18 180.98,4.89 269.5,10.73 59.21,3.9 162.96,-3.97 224.19,-10.58 112.45,-12.15 151.41,5.12 239.49,73.42 55.12,42.75 49.05,81.26 77.73,99.64 28.25,18.09 83.45,7.46 104.18,-13.23 46.27,-46.19 67.76,-112.96 93.02,-172.41 15.45,-36.37 228.57,-100.12 257.69,-144.66 31.75,-48.54 86.46,-122.72 78,-181.91 -14.78,-103.42 77.1,-165.93 125.12,-252.06 42.09,-75.48 124.06,-154.98 181.23,-220.36 21.04,-24.07 37.53,-50.46 61.99,-72.05 119.82,-105.77 116.53,-53.3 236.47,-117.27 61.42,-32.76 143.64,-264.18 155.02,-331.44 18.74,-110.8 136.17,-185.27 200.61,-269.35 53.91,-70.36 78.3,-173.89 129.32,-226.88 32.2,-33.44 87.98,-24.54 102.52,-114.91 12.07,-75.05 13.33,-158.04 82.26,-210.15 64.91,-49.08 94.81,-132.29 142.21,-198.44"
                id="path27"/>
        <path
                class="fil4 str3"
                d="m 15883.13,7592.47 c 77.09,37.02 130.43,52.79 214.89,37.93 44.84,-7.89 131.3,1 170.33,24.38 39.03,23.37 58.19,22.75 97,57.88 46.44,42.02 118.42,5.13 184.92,27.54 63.47,21.4 139.84,20.1 191.03,64.64 28.92,25.15 116.04,51.69 155.15,51.69 72.84,0 141.86,-18.77 163.15,71.11 5.31,22.44 0.84,86.25 7.46,112.02 12.33,47.98 3.29,44.32 28.26,100.07 1.63,3.64 1.55,8.34 4.39,11.15 46.19,45.68 60.23,88.76 103.09,136.97 23.7,26.67 44.49,69.7 73.85,100.49 39.04,40.93 96.95,77.54 154.45,47.53 42.82,-22.36 80.04,-85.39 154.5,-80.08 27.73,1.98 72.81,36.94 134.18,41.48 78.9,5.85 129.18,56.65 181.81,109.28 34.07,34.07 48.16,44.72 90.66,66.3 61.48,31.22 57.58,95.75 137.82,136.39 5.1,2.58 10.2,5.36 14.74,8.84 101.21,77.45 64.92,63.16 109.15,169.9 44.73,107.93 35.25,88.78 118.63,171.98 92.34,92.12 55.73,234.19 254.15,231.94 88.83,-1.01 177.22,-6.01 265.62,-14.46 82.88,-7.93 185.42,1.32 259.1,42.99 60.57,34.26 97.74,58.27 153.23,100.71"
                id="path28"/>
        <path
                class="fil4 str4"
                d="m 3498.49,1000 c -4.86,32.1 -8.19,64.48 -14.6,96.3 -34.1,169.24 -167.89,369.49 1.83,512.68 69.87,58.95 192.71,63.34 272.81,113.31 139.81,87.22 198.02,-7.13 344.9,-2.74 31.58,0.94 47.15,18.88 73.91,32.9 58.56,30.68 131.41,-6.2 191.61,33.82 11.03,7.33 67.5,175.07 64.78,194.65 -5.2,37.33 -13.98,125.24 27.37,146.22 47.91,24.31 87.46,34.13 144.17,55.74 89.64,34.17 108.6,139.73 19.16,88.65 -31,-17.7 -69.26,-78.14 -113.14,-53 -62.85,36.02 48.34,67.96 51.09,92.3 11.16,98.79 33.49,230.15 0,324.42 -15.15,42.66 -38.68,123.87 -76.64,149.87 -43.13,29.55 -132.32,-9.7 -130.48,76.77 1.41,66.39 -63.05,96.14 -24.63,166.32 30.47,55.67 38.91,75.67 47.44,138.91 6,44.53 13.09,104.16 34.67,143.48 28.52,51.95 105.99,39.79 153.29,80.42 41.21,35.4 1.49,112.14 41.97,159.93 45.76,54.03 16.66,95.48 41.98,152.61 22.91,51.7 70.12,19.46 111.31,51.18 47.02,36.21 85.97,5.15 124.09,32.9 25.96,18.89 36.29,55.36 67.52,62.14 39.12,8.5 32.91,21.47 46.53,51.18 20.61,44.94 129.55,4.56 89.42,68.54 -17.18,27.4 -53.84,68.97 -86.68,74.93 -77.7,14.11 -154.37,21.75 -103.1,106.93 41.84,69.52 -131.98,19.03 -80.3,108.75 12,20.83 30.31,-14.91 52.01,-8.23 18.15,5.58 -83.64,70.22 -53.83,101.44 13.47,14.1 23.07,3.83 20.07,31.07 -9.29,84.18 10,75.85 63.87,27.42 47.14,-42.38 37.52,-20.03 83.95,-26.5 23.21,-3.24 83.97,-20 43.79,27.41 -15.54,18.34 -61.13,37.15 -61.13,63.97 0,29.79 72.76,25.84 61.13,72.2 -7.24,28.88 -33.18,57.32 -11.86,84.99 41.67,54.07 -37.53,68.48 -11.86,109.66 43.86,70.35 -31.8,69.55 -54.75,127.03 -3.62,9.08 5.68,18.72 8.52,28.08"
                id="path29"/>
        <path
                class="fil4 str5"
                d="m 1000,11861.66 c 33.88,-63.97 65.02,-129.48 101.63,-191.91 45.98,-78.4 86.99,-161.17 145.99,-230.29 15.74,-18.44 45.78,-16.29 69.34,-21.94 19.75,-4.73 44.27,3.42 60.22,-9.13 14.08,-11.07 2.06,-40.48 16.42,-51.18 36.72,-27.34 84.24,-35.92 125.92,-54.83 36.18,-16.42 77.13,-25.77 107.66,-51.18 53.67,-44.67 94.11,-103.2 140.52,-155.36 33.27,-37.4 59.81,-81.63 98.54,-113.32 48.62,-39.78 105.08,-69.27 160.59,-98.7 58.45,-30.99 129.99,-39.71 180.65,-82.24 58.02,-48.7 78.9,-131.94 135.04,-182.78 35.53,-32.18 90.07,-34.21 131.39,-58.48 22.67,-13.31 52.3,-27.45 58.4,-53.01 28.61,-119.87 13.28,-247.5 41.97,-367.37 8.71,-36.42 44.97,-59.9 67.45,-89.86"
                id="path30"/>
        <path
                class="fil4 str5"
                d="m 2207.48,10801.58 c 243.93,6.09 488.1,5.68 731.77,18.27 50.13,2.59 98.76,18.14 148.14,27.22"
                id="path31"/>
        <path
                class="fil4 str5"
                d="m 1000,12702.42 c 125.12,65.8 254.63,123.86 375.36,197.4 27.59,16.81 46.06,45.63 65.69,71.28 64.4,84.14 121.1,174.05 186.13,257.71 50.62,65.11 96,136.97 160.59,188.26 72.71,57.74 164.87,85.71 244.53,133.42 41.57,24.9 77.6,58.28 118.61,84.08 58.83,37.01 126.24,60.94 180.66,104.18 21.35,16.96 23.72,49.53 40.15,71.28 53.7,71.09 95.21,157.67 169.71,206.54 88.63,58.14 199.04,73.74 301.1,102.35 91.68,25.69 184.26,53.3 279.2,60.31 40.17,2.96 77.28,-23.25 116.79,-31.07 14.59,-2.89 29.77,-0.62 44.63,-0.93 43.52,-0.9 89.75,-17.84 130.56,-2.72 95.54,35.41 182.88,91.54 266.42,149.87 44.12,30.8 75.31,76.89 113.14,115.15 23.6,23.88 40.48,57.68 71.17,71.28 41.61,18.43 93.46,1.64 135.04,20.11 94.99,42.19 185.81,95.71 268.25,159.01 46.93,36.03 81.39,86.53 114.97,135.25 102.29,148.39 201.29,299.35 291.97,455.11 22.88,39.3 42.54,82.72 47.45,127.94 8.09,74.55 -28.24,152.29 -9.13,224.81 11.74,44.56 57.06,74.24 94.9,100.53 52.96,36.8 112.66,64.14 173.36,85.9 64.16,23 135.53,22.42 198.9,47.52 74.68,29.58 142.1,75.04 211.69,115.15 55.15,31.79 109.7,64.83 162.41,100.52 97.59,66.08 195.54,132.03 288.32,204.71 35.92,28.13 60.51,69.11 96.72,96.87 42.23,32.38 100.44,43.44 136.86,82.25 51.68,55.07 67.43,138.13 120.44,191.91 44.03,44.67 115.88,52.99 162.41,95.04 36.59,33.07 48.41,86.67 80.3,124.29 50.66,59.76 110.15,111.45 166.06,166.32 94.94,93.17 173.44,207.73 286.5,277.82 358.12,222.02 740.99,401.65 1116.8,592.19 16.28,8.25 37.93,8.92 54.75,1.82 35.92,-15.16 60.91,-50.37 96.71,-65.79 126.21,-54.39 261.82,-85.58 386.87,-142.57 362.03,-164.99 715.92,-347.33 1073.01,-522.73 246.93,-121.29 500.3,-230.73 739.06,-367.38 107.45,-61.49 201.92,-143.94 295.63,-224.81 21.61,-18.64 25.67,-52.83 47.44,-71.28 12.29,-10.41 31.77,-12.76 47.45,-9.14 50.62,11.7 97.5,35.94 146.25,53.91"
                id="path32"/>
        <path
                class="fil4 str3"
                d="m 13824.43,9513.94 c -27.25,-3.73 -62,55.26 -84.85,-1.83 -19.77,-49.4 89.42,-137.21 18.24,-155.36 -81.88,-20.89 -46.11,-85.15 -67.52,-162.67 -8.64,-31.3 -58.53,-13.01 -77.55,-42.95 -12.78,-20.12 -23.51,-35.19 -49.27,-38.38 -28.1,-3.48 -28.34,12.09 -51.1,-16.45 -32.5,-40.76 -105.28,-59 -104.02,16.45 0.26,15.58 10.97,91.94 -28.28,77.68 -20.44,-7.42 -44.04,-39.78 -54.75,-58.49 -18.86,-32.95 -69.18,-20.81 -74.82,-59.4 -9.97,-68.12 19.96,-83.79 -59.3,-116.06 -15.15,-6.17 -86.34,16.97 -66.61,-30.16 12.78,-30.52 57.17,-67.33 -12.77,-68.54 -22.31,-0.38 -47.74,2.02 -61.14,-19.19 -45.05,-71.27 -57.29,-9.2 -104.93,17.36 -64.42,35.91 -27.56,-43.85 -68.43,-50.26 -70.85,-11.12 -96.57,74.26 -166.97,12.79 -37.74,-32.95 12.97,-52.73 -6.39,-80.42 -24.5,-35.05 -41.78,-39.08 -52.92,-86.82 -4.48,-19.23 7.87,-41.87 -13.69,-45.69 -44.61,-7.91 -29.96,112.49 -52.92,144.39 -18.45,25.63 -69.67,72.7 -104.93,57.58 -30.06,-12.88 -34.62,-53.96 -73.9,-51.18 -38.1,2.7 -73.83,20.08 -113.14,13.71 -64.22,-10.41 -144.97,-48.89 -155.12,-111.49 -15.26,-94.09 -39.04,-97.43 -93.98,-153.53 -50.99,-52.06 -48.24,-58.73 -41.97,-129.77 7.95,-90 46.83,-157.39 -45.62,-210.19 -32.94,-18.81 -13.59,-69.35 -43.8,-94.13 -35.36,-29.01 -94.71,-35.86 -138.68,-38.38 -58.32,-3.35 -85.92,-69.26 -156.94,-13.71 -20.69,16.19 -38.72,15.2 -58.4,13.11 -15.31,-1.62 -31.67,-3.94 -51.09,0.6 -32.16,7.53 -59.5,29.63 -92.16,32.89 -58.82,5.86 -96.65,-2.93 -150.55,31.08 -52.61,33.2 -104.59,67.46 -157.85,99.61 -34.82,21.02 -47.24,42.94 -90.33,58.49 -56.6,20.43 -260.01,2.38 -260.95,73.11 -0.91,68.09 75.15,109.96 24.63,185.51 -63.74,95.33 -76.75,-28.61 -220.81,68.54 -76.33,51.47 -163.16,90.1 -229.01,154.44 -74.51,72.8 -113.76,53.09 -197.09,85.91 -70.79,27.88 -104.43,85.47 -167.89,125.2 -85.17,53.33 -149.43,121.37 -239.96,170.89 -35.34,19.33 -307.72,104.45 -310.23,105.1 -100.7,26.09 -202.56,47.53 -303.84,71.28 -133.77,31.38 -298.55,176.74 -416.98,252.23 -109.23,69.63 -328.77,18.21 -411.5,125.2 -16.54,21.39 -37.26,67.05 -48.36,93.21 -13.88,32.71 -52.77,35.13 -73.91,64.88 -34.61,48.71 -23.96,103.96 -71.17,152.62 -65.49,67.49 -187.12,32.68 -220.8,98.7 -48.78,95.6 -192.37,118.06 -263.7,190.08 -77.21,77.96 -348.39,197.7 -451.65,250.4 -83.11,42.41 -185.43,31.42 -274.64,53.92 -50.22,12.66 -81.06,53.16 -124.09,76.77 -49.62,27.23 -135.74,51.8 -195.26,52.09 -70.39,0.34 -108.63,-2.62 -104.01,70.36 3.76,59.5 -179.81,137.05 -229.94,185.52 -58.55,56.61 -99.74,67.88 -147.81,139.82 -76.12,113.92 -187.18,63.79 -251.83,175.46 -64.27,111 -200.14,41.68 -241.79,186.43 -35.75,124.27 -164.87,114.67 -223.55,226.64 -49.13,93.74 -169.64,165 -232.67,253.14 -10.65,14.9 -16.24,32.84 -24.37,49.26"
                id="path33"/>
        <path
                class="fil4 str5"
                d="m 11331.68,15579.34 c 21.91,-48.76 50.21,-95.13 65.72,-146.28 28.48,-93.9 51.41,-189.88 65.69,-286.95 5.33,-36.25 -0.52,-73.68 -7.3,-109.67 -9.72,-51.56 -39.21,-99.32 -41.97,-151.7 -5.84,-110.87 1.61,-222.63 16.42,-332.65 13.27,-98.56 30.55,-198.29 67.52,-290.61 51.35,-128.24 137.64,-240.01 195.26,-365.55 26.04,-56.74 37.96,-118.99 54.75,-179.11 7.55,-27.05 18.49,-54.18 18.24,-82.25 -0.36,-40.76 -17.47,-79.96 -20.07,-120.63 -1.68,-26.25 -4.32,-55 7.3,-78.59 37.42,-75.91 79.23,-151.88 136.86,-213.85 59.77,-64.27 147.52,-97.25 209.86,-159.01 51.39,-50.91 74.98,-125.98 127.74,-175.47 73.53,-68.97 167.69,-112.43 246.35,-175.46 22.27,-17.84 39.1,-41.95 54.75,-65.8 54.43,-82.96 93.9,-175.98 155.11,-254.05 24.79,-31.63 61.84,-53.12 98.54,-69.46 25.23,-11.23 58.54,3.4 82.12,-10.96 25.27,-15.39 29.43,-53.29 52.92,-71.28 50.21,-38.46 120.42,-49.45 164.24,-95.05 68.46,-71.24 106.16,-166.82 164.23,-246.74 21.78,-29.98 67.13,-46.01 74.82,-82.25 8.62,-40.63 -32.51,-83.95 -3.66,-122.46 23.06,-30.77 55.71,-36.92 70.26,-81.33 9.83,-30.03 5.27,-62.8 11.86,-93.22 9.21,-42.45 63.35,-74.59 82.12,-118.8 27.92,-65.74 42.04,-136.56 46.53,-207.45 3.48,-54.9 -7.19,-103.75 44.71,-137.99 44.38,-29.28 48.99,-84.42 89.42,-107.84 65.15,-37.75 147.81,-35.95 157.85,-127.03 9.73,-88.34 28.52,-176.15 29.2,-265.02 0.21,-27.26 25.33,-54.56 10.95,-95.04 -5.67,-15.99 -33.33,-40.41 -34.68,-50.26 -2.96,-21.45 18.66,-42.77 14.6,-65.8 -4.42,-25.06 -59.5,-47.56 -48.36,-76.77 28.26,-74.04 -71.69,-134.87 -17.33,-192.82 32.64,-34.8 64.81,-34.07 58.39,-92.3 -5.56,-50.41 -32,-98.09 -21.89,-148.05 5.54,-27.38 -28.29,-48.83 -28.29,-78.59 0,-30.74 34.95,-57.26 41.97,-89.56 5.52,-25.42 14.32,-149.74 0,-151.7"
                id="path34"/>
        <path
                class="fil4 str4"
                d="m 3283.15,14147.23 c 5.17,-20.7 16.61,-40.81 15.52,-62.12 -1.27,-24.87 1.58,-136.85 30.11,-126.12 49.94,18.79 15.15,93.51 84.86,125.2 130.58,59.36 231.05,-63 349.46,-76.76 55.66,-6.46 78.94,18.58 137.77,-8.23 53.9,-24.56 106.71,-65.9 151.47,-105.09 103.52,-90.62 39.42,-204.27 117.7,-294.27 114.37,-131.5 114.28,-226.4 128.65,-391.13 4.67,-53.58 44.1,-158.54 55.66,-219.33 10.35,-54.43 22.31,-88.42 80.29,-99.61 94.48,-18.24 21.74,-110.88 104.02,-142.57 70.5,-27.15 62.3,-119.02 81.21,-183.69 24.5,-83.79 72.08,-132.03 144.16,-175.46 90.69,-54.64 107.3,-167.85 148.72,-255.88 7.35,-15.63 12.32,-32.28 18.48,-48.43"
                id="path35"/>
        <path
                class="fil4 str5"
                d="m 11325.95,15871.61 c 41.45,-13.36 86.35,-18.83 124.35,-40.1 80.57,-45.09 160.93,-93.85 228.12,-157.19 38.37,-36.17 43.48,-99.35 82.12,-135.25 89.36,-83.01 206.31,-132.61 295.62,-215.67 57.07,-53.07 99.1,-121.12 138.69,-188.26 30.22,-51.25 49.96,-108.24 69.35,-164.5 39.67,-115.12 56.51,-238.58 107.66,-349.09 35.14,-75.92 91.12,-141.35 147.81,-202.88 82.01,-89.02 156.55,-195.98 266.43,-246.75 113.01,-52.21 249.65,-17.39 370.45,-47.52 50.52,-12.6 92.66,-48.32 135.03,-78.59 66.19,-47.3 121.21,-109.74 189.79,-153.53 71.55,-45.68 150.61,-78.62 228.1,-113.32 26.16,-11.71 60.24,-7.07 82.12,-25.59 66.76,-56.51 116.96,-130.14 177.01,-193.74 35.88,-38 76.14,-124.03 130.47,-125.2 84.13,-1.82 82.2,-56.27 149.64,-71.28 40.84,-9.09 54.57,-70.43 111.32,-76.77 92.86,-10.38 56.94,-88.44 149.63,-118.8 53.6,-17.55 133.43,-159.36 192.53,-199.22 56.05,-37.8 186.16,-28.51 255.48,-43.87 205.16,-45.48 239.05,-210.44 239.05,104.18 0,216.79 91.7,-89.04 119.53,-109.66 27.6,-20.45 102.46,-43.18 96.72,-88.65 -22.02,-174.54 15.05,-48.96 73.9,-152.61 39.29,-69.21 38,-75.15 118.62,-94.13 88.15,-20.76 82.27,-201.31 159.67,-179.12 33.71,9.66 32.53,64.16 78.47,52.09 44,-11.56 67.01,-73.25 81.21,-111.49 12.4,-33.38 39.38,-6.78 56.57,-30.16 17.27,-23.49 -4.44,-49.11 12.77,-71.28 24.98,-32.18 74.78,-75.42 19.16,-111.49 -56.52,-36.66 -26.05,-50.01 0.92,-88.65 26.91,-38.55 -59.4,-74.55 -25.55,-137.99 21.17,-39.69 48.4,-12.72 76.64,-35.64 23.28,-18.89 37.43,-66.03 51.1,-95.96 11.49,-25.16 -14.06,-126.49 33.76,-118.8 133.06,21.42 81.88,-143.38 40.15,-212.02 -76.88,-126.46 -9.17,-75.24 68.43,-137.08 54.08,-43.09 58.78,-98.98 141.42,-49.35 24.27,14.57 77.61,91.23 105.85,59.4 20.29,-22.86 -3.23,-63.35 21.89,-93.21 25.01,-29.73 78.74,12.07 73,-61.23 -7.19,-91.69 -23.98,-88.23 80.29,-114.23 84.52,-21.08 57.88,-5.55 116.79,-74.03 12.23,-14.22 36.91,-9.71 51.1,-31.98 36.69,-57.58 3.49,-39.76 58.39,-84.99 25.94,-21.37 53.18,-91.63 80.3,-16.45 60.15,166.7 70.88,21.96 171.53,63.97 42.15,17.59 88.57,70.63 136.87,42.95 49.02,-28.09 61.25,-88.17 124.09,-107.83 34.97,-10.93 62.19,7.22 94.89,-21.02 118.33,-102.2 212.01,-36.61 362.23,-48.44 67.14,-5.29 230.87,-36.81 276.47,-80.42 74.78,-71.51 56.57,-403.93 176.1,-403.93 62.99,0 109.37,112.58 173.36,125.2 83.88,16.55 138.22,-112 183.4,-161.75 44.05,-48.51 75,-99.7 90.33,-160.84 9.86,-39.37 60.43,-49.31 79.38,-98.7 13.79,-35.95 21.77,-75.53 41.97,-108.75 30.71,-50.5 88.49,-85.05 122.27,-142.57 45.99,-78.31 88.68,-153.26 157.85,-212.93 36.16,-31.2 85.78,-67.25 126.13,-103.76 11.29,-10.21 22.25,-19.99 32.63,-28.75 94.79,-80 25.83,-186.03 -31.03,-271.42 -26.56,-39.89 -52.68,-84.71 -91.24,-114.23 -49.4,-37.82 -115.11,-46.74 -135.95,-112.41 -15.21,-47.93 -88.57,-131.53 -67.52,-168.15 13.65,-23.76 39.42,-8.44 58.4,-20.1 14.98,-9.2 2.98,-30.29 14.6,-37.47 11.95,-7.39 126.36,-34.19 65.69,-70.37 -75.88,-45.25 9.9,-95.09 -36.5,-159.93 -51.45,-71.89 -125.01,-105.41 -172.45,-188.25 -13.89,-24.25 -45.85,-24.79 -63.87,-44.78 -23.88,-26.5 -7.28,-50.62 -17.33,-78.6 -17.82,-49.57 -63.19,-88.03 -91.24,-130.68 -36.63,-55.69 -75.29,-184.58 -131.39,-213.84 -94.98,-49.55 -186.57,-62.69 -113.15,-191 11.35,-19.83 53.32,-105.19 55.66,-126.12 12.31,-109.73 -0.75,-226.49 25.55,-337.21 38.88,-163.62 184.01,-97.76 284.68,-182.78 50.78,-42.88 108.03,-42.68 153.29,-98.7 48.91,-60.55 38.71,-68.98 37.41,-138.9 -0.61,-32.7 26.29,-58.72 28.28,-95.05 3.1,-56.46 -36.86,-161.3 3.65,-204.7 19.04,-20.39 49.31,-17.35 69.34,-42.04 22.87,-28.19 39.68,-68.15 58.4,-100.53 43.27,-74.82 38.97,-155.07 156.94,-145.3 75.03,6.22 139.04,43.98 216.24,27.42 123.9,-26.59 166.09,-129.02 257.31,-200.14 102.68,-80.06 178.1,-69.58 301.1,-57.58 16.35,1.59 32.51,4.88 48.77,7.32"
                id="path36"/>
        <path
                class="fil4 str5"
                d="m 13824.43,9513.94 c 5.17,-23.15 4.13,-48.64 15.51,-69.46 14.39,-26.33 77.9,4.42 107.67,-24.67 37.7,-36.86 75.43,-73.72 113.14,-110.58 44.25,-43.24 55.08,-5.84 95.81,-2.74 41.81,3.18 70.09,-30.97 107.66,-41.13 70.53,-19.06 48.65,45.78 144.17,-16.45 25.1,-16.35 42.6,19.01 81.2,-17.36 54.04,-50.92 85.97,-126.46 150.55,-47.52 33.74,41.24 144.38,-60.01 181.57,-83.16 94.55,-58.84 211.72,-52.5 184.32,-201.05 -5.19,-28.18 163.26,-119.67 104.92,-182.78 -26.39,-28.55 -87.26,31.72 -123.17,5.49 -31.16,-22.76 -9.89,-91.61 27.37,-58.49 64.34,57.19 97.13,-90.02 174.27,-63.06 75.13,26.25 117,-118.1 173.36,-154.44 26.47,-17.06 71.67,-26.7 46.54,-63.06 -63.82,-92.35 43.46,-96.65 48.36,-176.38 5.51,-89.52 -34.48,-209.84 53.09,-215.66 26.44,-1.76 143.33,-197.35 156.9,-213.06 63.6,-73.68 169.45,-127.27 263.56,-236.57 51.28,-59.52 128.29,-123.49 187.96,-174.55 77.04,-65.93 140.74,-150.86 194.34,-236.69 41.48,-66.43 12.76,-156.91 54.75,-228.47 26.15,-44.57 85.94,-59.82 128.65,-85.9 187.49,-114.52 252.48,-333.83 447.09,-460.59 51.38,-33.47 -10.67,-108.33 31.94,-167.24 62.92,-86.98 145.83,-75.33 129.56,-206.53 -12.13,-97.79 34.46,-163.45 71.17,-256.8 40.14,-102.09 98.36,-111.99 166.97,-159.93 55.34,-38.67 -5.25,-89.98 18.25,-138.91 38.32,-79.78 101.62,-137.33 87.6,-235.77 -12.25,-86.03 -68.99,-146.09 -61.14,-237.61 13.75,-160.41 69.58,-336.61 11.86,-485.26 -40.27,-103.71 -65.27,-242.28 -29.19,-317.12 58.29,-120.89 78.26,-263.07 0,-373.77 -69.41,-98.18 -135.52,-158.7 -106.76,-286.04 13.44,-59.51 -31.45,-114.99 6.39,-162.67 46.54,-58.64 63.36,-142.06 29.2,-204.71 -49.38,-90.55 -84.67,-192.91 -136.87,-277.81 -61.64,-100.27 -65.65,-261.38 -93.06,-375.6 -14.08,-58.68 -50.74,-111.21 -62.05,-170.89 -18.86,-99.46 79.7,-174.83 37.41,-263.2 -28.79,-60.16 -42,-76.97 5.47,-133.42 35.6,-42.33 27.41,-92.32 47.45,-140.74 37.17,-89.79 63.31,-192.56 88.51,-286.95 37.1,-138.9 75.7,-277.43 111.31,-416.73 4.85,-18.97 6.69,-38.6 10.04,-57.91"
                id="path37"/>
        <path
                class="fil4 str4"
                d="m 4490.12,11586.82 c 206.31,-350.09 412.95,-699.99 618.93,-1050.27 8.84,-15.04 22.96,-28.44 25.54,-45.69 1.53,-10.22 -10.82,-17.77 -14.6,-27.41 -1.42,-3.62 1.01,-8.29 -1.82,-10.97 -17.41,-16.51 -37.11,-30.46 -55.66,-45.69 -33.37,-27.39 -18.74,-32.86 -8.21,-64.89 10.22,-31.09 -1.22,-46.04 -5.47,-74.94 -5.79,-39.38 52.29,-64.26 48.35,-116.06 -3.37,-44.22 -10.47,-75.02 8.22,-117.89 30.33,-69.53 69.05,-82.31 61.13,-169.06 -6.38,-69.97 -29.36,-143.15 7.3,-206.54 26.98,-46.64 41.97,-118.04 62.95,-168.15 41.4,-98.86 121.28,-126.27 197.09,-191 38.22,-32.63 78.72,-60.46 107.66,-102.35 30.74,-44.48 23.4,-84.33 24.64,-133.42 1.61,-64.02 -6.09,-127.94 -9.13,-191.92 -3.89,-81.88 65.29,-69.19 79.38,-135.25 14.56,-68.24 29.48,-60.09 83.94,-67.63 32.98,-4.56 28.28,-45.86 59.31,-50.26 91.06,-12.93 42.09,-52.78 89.42,-85.9 56.48,-39.52 2.04,-93.79 27.37,-143.48 67.24,-131.89 149.14,-223.79 262.78,-328.99 56.68,-52.47 140.32,-149.32 206.2,-182.78 27.67,-14.05 50.24,2.81 80.3,-17.36 30.65,-20.56 58.39,-55.56 80.29,-84.99 23.4,-31.45 52.19,-26.55 70.25,-65.8 35.22,-76.5 20.39,-157.89 100.37,-212.93 55.17,-37.97 76.31,-108.77 101.28,-168.15 54.52,-129.62 139.75,-106.55 208.94,-201.97 22.92,-31.62 53.18,-125.51 101.28,-121.54 40.4,3.34 -0.45,78.05 8.21,103.27 0.66,1.93 3.56,3.38 5.48,2.74 30.55,-10.27 62.41,-101.68 98.54,-127.03 30.5,-21.39 6.24,-68.53 43.79,-95.04 33.29,-23.5 48.97,17.16 83.94,11.88 28.23,-4.26 52.78,-37.03 82.12,-47.52 63.04,-22.55 126.59,9.04 145.99,-82.25 10.14,-47.74 25.49,-97.29 75.73,-116.06 29.89,-11.17 54.7,12.68 86.68,4.57 52.35,-13.29 62.83,-89.79 124.09,-94.13 69.87,-4.95 118.26,-27.04 178.83,-62.14 110.02,-63.77 215.93,-115.76 312.05,-199.23 72.22,-62.71 126.12,-55.73 204.38,-26.5 49.67,18.55 114.35,-75.44 129.56,19.19 21.67,134.82 129.6,97.14 182.48,3.66 67.18,-118.75 89.73,-109.63 218.07,-94.13 27.48,3.32 58.14,-5.7 86.68,-14.62 31.72,-9.92 55.04,-54.54 83.94,-48.44 40.93,8.65 50.32,-5.77 68.44,-38.38 12.76,-22.97 114.62,-7.58 163.32,-51.18 47.59,-42.6 99.28,-46.88 143.25,-82.25 83.11,-66.86 116.46,-200.18 201.64,-254.05 52.81,-63.29 53.54,-73.33 46.86,-143.34 -3.91,-40.97 -9.82,-82.87 -14.74,-124.17 -6.19,-52 -43.89,-75.02 -41.34,-118.54 2.07,-35.4 -76.57,-164.43 -91.52,-221.68 -21.56,-82.57 -18.12,-131.5 -1.65,-216.06 3.12,-16.01 13.19,-28.2 15.45,-42.76 35.71,-50.96 44.71,-47.41 80.6,-85.42 56.25,-59.56 13.75,-114.15 93.45,-166.36 79.14,-51.84 66.54,-159.6 107.64,-235.39 26.94,-49.68 19.77,-75.73 69.54,-126.86 42.15,-43.3 108.42,-147.75 64.64,-206.47 -26.98,-36.18 -57.84,-76.1 -96.86,-99.87 l -14.74,-8.98 c -40.46,-51.65 -74.99,-108.45 -99.79,-169.1 -11.53,-28.21 38.16,-50.48 61.9,-82.82 54.59,-74.37 38.23,-81.31 131.91,-118.64 35.12,-14 121.13,17.58 197.16,-37.33 68.71,-49.62 48.77,-130.44 36.52,-197.07 -13.93,-75.81 42.76,-80.66 -11.71,-167.01 -7.68,-12.17 -12.3,-21.99 -13.37,-36.67 l -24.97,-138.86"
                id="path38"/>
        <path
                class="fil4 str4"
                d="m 10994.19,2898.94 -3.91,109.9 0.14,3.88 c -1.64,53.42 -15.91,315.26 -7.98,351 10.08,45.38 6.42,237.04 -6.47,279.7 -25.47,84.27 -38.6,128.45 -38.6,216.77 0,45.28 5.56,55.55 8.41,92.32 3.93,50.61 49.42,215.42 64.75,261.9 18.69,33.92 10.08,76.82 15.53,115.15 8.4,58.99 48.11,122.74 70.26,179.12 27.48,69.94 -13.69,89.71 -13.69,148.05 0,30.51 20.64,55.04 20.08,86.81 -0.72,40.34 -43.92,89.29 -39.24,117.89 4.25,25.96 4.56,39.14 0.92,65.8 -34.6,81.08 -50.25,137.02 -66.24,221.43 -19.14,101.08 -76.17,134.27 -52.07,258.39 10.31,53.08 45.64,93.66 49.05,164.23 2.02,41.8 6.66,86.06 -5.25,126.96 -17.54,60.24 -14.46,149.54 -15.62,220.21 -60.67,45.76 7.27,223.1 8.87,295.51 3.04,137.99 -7.96,277.01 9.13,413.98 18.18,145.7 12.34,246.25 92.15,382.91 40.76,69.79 87.57,13.85 150.55,21.02 103.77,11.82 99.76,-147.68 180.66,-169.07 3.35,-0.88 7.81,0.11 10.04,2.75 44.24,52.21 -44.16,178.26 -57.48,235.77 -12.67,54.68 23.43,185.85 45.62,243.09 5.52,14.26 116.15,67.59 160.59,136.17 21.33,32.91 23.27,125.24 26.46,166.32 3.98,51.25 10.95,114.03 -23.73,157.19 -25.78,32.08 -79.35,39.17 -109.49,74.02 -19.97,23.1 -35.29,59.33 -19.16,88.65 16.02,29.13 52.44,-42.04 83.94,-30.16 28.17,10.63 21.53,71.15 25.55,95.36"
                id="path39"/>
        <path
                class="fil4 str4"
                d="m 12795.16,2811.55 c 11.88,37.49 23.61,75.04 35.64,112.48 36.05,112.15 28.3,127.97 112.09,180.51 70.8,44.39 102.3,58.04 181.57,90.51 48.09,19.7 88.41,95.05 109.69,129.65 43.92,71.39 149.68,124.67 214.65,148.96 94.71,35.41 98.78,-20.99 124.71,59.01 7.63,23.57 24.14,52.93 35.59,75.85 13.07,26.17 34.09,37.35 56.57,53.92 33.85,24.95 72.46,86.77 104.93,120.63 67.62,70.52 44.67,166.44 113.14,227.55 76.9,68.64 81.23,135.38 55.66,236.69 2.37,71.64 3.71,145.6 6.74,216.96 1.84,43.23 18.05,95.59 18.05,148.69 0,101.98 -60.58,119.13 -64.35,226.69 -3.69,105.59 -83.23,64.99 -114.25,134.66 l -4.96,7.55 c -29.99,96.9 -42.41,154.48 -37.89,255.23 5.11,113.7 -10.96,162.44 60.48,267.04 29.27,42.87 112.12,128.9 150.2,168.25 68.95,71.25 65.98,80.9 156.38,135.74 23.43,14.21 42.51,29.28 69.93,45.22 60.51,35.16 39.71,69.75 139.62,121.14 71.39,36.72 114.2,66.76 150.85,140.13 57.04,88.01 22.67,76.19 107.06,160.83 30.12,30.2 35.58,48.72 74.84,73.85 36.2,23.17 46.54,84.24 113.02,127.9 72.18,47.4 228.02,110.95 263.45,179.91 39.83,77.54 98.28,150.19 176.23,190.88 54.91,28.66 51.4,49.46 130.26,63.69 98.57,17.79 149.81,25.19 241.43,76.07 94.02,91.41 90.01,127.2 147.04,231.51 26.06,47.67 72.07,80.97 104.32,132.29 24.41,38.85 24.78,32.73 50.97,63.26 l 1.94,2.89 86.24,85.73"
                id="path40"/>
        <path
                class="fil4 str6"
                d="m 1000,7172.61 c 73.08,20.71 143.58,55.47 219.25,62.14 99.77,8.8 235.91,116.06 341.25,117.89 132.11,2.3 148.25,-212.09 234.49,-205.62 82.45,6.19 97.27,137.34 169.71,147.13 75.1,10.15 254.76,-195.87 319.35,-252.23 61.15,-53.36 3.27,-74.02 91.24,-106.01 31.04,-11.28 72.13,-97.83 104.93,-132.51 92.64,-97.96 167.34,-82.14 274.64,-133.42 63.62,-30.4 168.54,-149.96 233.59,-145.31 52.06,3.72 85.88,69.42 136.86,43.87 47.36,-23.73 78.9,-217.22 139.6,-173.64 68.73,49.34 136.57,99.99 206.21,148.05 17.66,12.19 25.44,31.34 41.97,45.69 66.01,57.32 159.71,65.47 217.16,135.26"
                id="path41"/>
        <path
                class="fil4 str6"
                d="m 8679.25,2684.6 c 81.2,4.87 163.01,25.6 243.62,14.62 70.58,-9.61 190.34,66 245.45,99.61 83.45,50.89 142.31,11.54 135.03,112.41 -6.86,95.05 57.46,31.03 107.67,81.33 85.71,85.85 189.76,-34.94 281.94,-73.11 40.06,-16.58 110.33,-43.21 153.29,-28.33 66.26,22.96 78.89,63.33 155.11,33.82 119.23,-46.16 84.03,8.55 177.92,38.38 62.59,19.88 158.96,6.4 225.37,6.4 267.95,0 478.64,18.11 716.26,-140.74 26.27,-17.56 210.66,-162.24 241.79,-192.83 122.33,-120.22 226.91,-103.94 359.5,-1.82 149.21,114.92 271.87,104.07 452.56,136.16 69.92,12.41 158.7,32.23 218.07,65.8 286.85,162.23 517.45,-123.82 734.51,-271.42 60.43,-41.09 140.44,-58.57 201.64,-103.27 225.42,-164.67 392.18,-431.99 664.25,-523.64 115.53,-38.92 216.89,-104.48 340.34,-124.29 46.27,-7.42 89,-5.29 123.17,-44.78 98.09,-113.37 65.71,-45.45 168.8,-40.21 120.16,6.11 213.35,-184.04 292.89,-167.24 50.38,10.64 29.47,65.55 106.76,39.3 65.27,-22.17 82.77,25.86 140.51,39.3 123.51,28.75 197.88,-95.09 269.17,12.79 46.53,70.41 415.35,-111.55 505.48,-119.72 94.93,-8.6 195.27,-67.03 271.9,-121.54 76.57,-54.47 109.15,58.64 198,51.18 142.77,-11.99 138.5,24.14 258.22,59.4 93.05,27.4 171.12,-10.39 261.86,-6.4 202.19,8.91 205.21,-71.26 335.78,-187.34 135.91,-120.83 185.9,-145.32 348.54,-108.75 156.78,35.25 320.73,235.74 486.33,243.09 78.09,3.47 199.38,-161.41 275.55,-204.71 116.78,-66.4 235.59,-129.41 350.37,-199.22 26.89,-16.36 49.27,-39.22 73.91,-58.83"
                id="path42"/>
        <path
                class="fil4 str6"
                d="m 17974.15,20000 c 15.51,-18.39 35.47,-33.81 46.53,-55.17 35.1,-67.77 16.24,-163.37 48.36,-238.52 58.93,-137.85 154.69,-186.05 293.81,-223.9 93.38,-25.4 308.29,-91.89 313.87,-200.14 3.4,-65.92 -86.22,-68.9 -129.56,-111.49 -94.56,-92.93 -31.28,-81.68 -17.34,-191.91 2.89,-22.92 -5.48,-63.23 8.21,-82.25 29.21,-40.58 82.34,-29.3 76.65,-103.27 -3.04,-39.58 9.41,-30.19 35.58,-55.74 47.21,-46.08 10.17,-135.03 94.89,-148.05 61.81,-9.49 133.92,11.05 151.47,-64.88 7.27,-31.48 -49.61,-86.67 -19.17,-113.32 17.87,-15.64 52.27,-8.85 72.09,-36.56 12.66,-17.7 -1.73,-37.8 12.77,-53.91 33.53,-37.24 83.1,-33.83 104.93,-93.22 11.04,-30.04 39.89,-126.54 5.47,-139.82 -52.46,-20.24 -108.69,51.92 -164.23,9.14 -68.53,-52.78 7.92,-64.89 14.6,-113.32 17.35,-125.85 34.55,-95.63 138.68,-69.46 113.07,28.42 163.82,-14.88 182.49,-120.63 11.19,-63.37 -3.29,-52.5 47.45,-90.47 43.52,-32.56 23.91,-90.46 62.04,-125.2 26.77,-24.39 53.52,10.29 83.03,7.31 97.23,-9.84 279.21,-262.55 368.62,-227.55 98.23,38.46 57,69.3 179.75,46.61 39.53,-7.3 62.53,27.14 92.16,19.19 39.75,-10.66 59.68,-48.74 105.84,-29.25 13.14,5.55 25.21,13.4 37.82,20.1"
                id="path43"/>
        <path
                class="fil4 str6"
                d="m 10957.59,20000 c -5.48,-77.76 0.58,-157.21 -16.43,-233.27 -21.03,-94.01 -73.85,-178.77 -96.72,-272.34 -20.56,-84.12 -22.57,-171.73 -32.84,-257.71 -37.77,-316.13 -75.65,-632.25 -111.32,-948.61 -14.2,-125.96 -26.71,-252.12 -38.32,-378.34 -8.45,-91.9 -3.41,-185.59 -21.9,-275.99 -22.51,-110.04 -84.64,-210.48 -100.37,-321.69 -7.41,-52.41 16.38,-105.07 32.85,-155.36 33.55,-102.45 63.55,-207.86 116.79,-301.58 113.04,-198.98 254.94,-380.16 379.57,-572.09 85.85,-132.2 180.54,-259.69 251.83,-400.28 28.33,-55.88 27.79,-122.21 43.8,-182.77 8.32,-31.48 37.75,-61.81 29.2,-93.22 -5.94,-21.82 -39.49,-28.84 -62.05,-27.41 -21.05,1.34 -32.36,39.43 -52.92,34.72 -21.08,-4.83 -35.04,-33.22 -34.67,-54.83 0.92,-53.33 29.1,-102.84 38.32,-155.36 0.82,-4.68 -4.6,-9.52 -9.12,-10.96 -38.24,-12.2 -87.1,-2.27 -116.8,-29.25 -118.82,-107.96 -192.58,-260.7 -315.7,-363.72 -127.5,-106.69 -281.54,-177.27 -427.01,-257.72 -513.42,-283.94 -1031.71,-559.04 -1549.3,-835.28 -185.6,-99.05 -373.91,-192.96 -560.23,-290.61 -140.32,-73.54 -277.9,-152.41 -419.72,-222.99 -53,-26.38 -106.96,-52.71 -164.24,-67.63 -435.7,-113.49 -873.93,-217.37 -1312.98,-317.14 -192.48,-43.74 -387.48,-75.56 -581.22,-113.32 -157.37,-30.67 -232.38,-123.6 -331.21,-244.92 -62.82,-77.11 -10.86,-115.18 7.3,-195.57 0.83,-3.67 -2.8,-7.2 -2.73,-10.96 1.6,-81.83 -0.35,-108.31 -89.42,-122.46 -43.45,-6.9 -112.09,-75.73 -144.17,-52.09 -179.53,132.35 -118.63,-183.17 -152.37,-265.02 -25.81,-62.6 -132.76,95.73 -179.69,80.42 -37.8,-12.33 -50.61,-61.36 -76.64,-91.39 -114.47,-132.03 -214,-279.05 -344.9,-394.79 -30.87,-27.3 -82.76,-6.56 -122.26,-18.28 -59.68,-17.7 -118.02,-40.97 -173.36,-69.45 -32.9,-16.94 -54.1,-54.81 -89.42,-65.8 -190.19,-59.17 -388.1,-90.3 -580.3,-142.56 -27.84,-7.57 -57.36,-16.89 -78.47,-36.56 -120,-111.83 -236.42,-228.41 -341.24,-354.58 -32.03,-38.55 -52.06,-87.03 -65.7,-135.25 -20.15,-71.21 -11.71,-148.97 -34.67,-219.33 -9.09,-27.87 -37.45,-45.28 -58.4,-65.8 -89.21,-87.38 -195.61,-158.85 -271.9,-257.71 -34.37,-44.53 -42.19,-105.3 -51.09,-160.84 -10.13,-63.18 -26.44,-131.45 -5.48,-191.91 51.49,-148.5 160.96,-271.78 217.16,-418.55 27.02,-70.57 19.88,-149.83 29.2,-224.82 10.74,-86.46 -1.87,-178.86 31.02,-259.53 22.92,-56.2 77.68,-95.47 127.74,-129.77 44.36,-30.4 106.29,-28.51 149.64,-60.32 72.53,-53.22 134.53,-120.55 191.6,-190.08 47.59,-57.98 97.01,-118.84 120.44,-190.09 12.7,-38.63 -28.37,-81.25 -18.25,-120.63 12.61,-49.08 75.61,-77.7 82.12,-127.94 14.44,-111.4 -19.57,-223.99 -21.9,-336.3 -1.32,-63.46 4.96,-126.91 10.95,-190.09 4.36,-45.98 18.49,-90.94 20.08,-137.08 3.28,-95.01 -5.81,-190.08 -5.48,-285.13 0.27,-79.84 -13.32,-162.3 7.3,-239.43 15.6,-58.33 66.4,-100.91 97.56,-152.62 18.42,-30.58 31.41,-64.36 51.1,-94.12 95.39,-144.18 337.16,58 410.59,-15.54 28.46,-28.5 39.51,-60.64 83.94,-63.97 62.05,-4.65 88.39,-75.61 136.87,-106.01 51.72,-32.43 57.51,-123.35 93.98,-181.86 43.31,-69.49 107.96,-68.14 164.24,-116.06 40.5,-34.49 79.84,-29.27 125.91,-49.35 89.84,-39.16 88.33,-145.51 154.2,-212.93 65.63,-67.18 163.72,-105.51 214.42,-188.26 30.15,-49.22 51.2,-92.93 30.11,-157.18 -9.29,-28.32 7.7,-92.87 -17.34,-106.01 -26.79,-14.06 -45.89,-19.9 -65.69,-45.69 -38.82,-50.57 55.85,-63.99 17.34,-120.64 -57.98,-85.3 45.62,-50.77 45.62,-132.51 0,-80.93 -87.12,-161.87 -150.55,-190.08 -52.47,-23.33 -61.68,-79.68 -31.03,-125.2 26.06,-38.7 46.07,10.5 76.65,19.19 56.76,16.14 56.46,-41.63 83.94,-68.54 39.09,-38.29 126.54,57.16 155.11,-38.38 10.59,-35.44 58.22,-107.61 103.11,-99.61 80.58,14.35 140.47,-78.81 236.32,-99.62 114.95,-24.97 231.44,-43.77 344.89,-74.93 68.86,-18.91 135.27,-46.39 200.74,-74.94 61.85,-26.97 120.44,-60.93 180.66,-91.39 75.7,-38.3 169.43,-26.19 251.83,-50.26 30.9,-9.02 145.25,-172.86 124.09,-189.17 -30.22,-23.29 -72.91,39.66 -107.67,21.93 -52.69,-26.89 91.28,-93.16 112.23,-99.61 53.47,-16.47 127.05,16.58 148.73,-72.19 12.04,-49.31 9.46,-39.55 -15.51,-78.6 -17.64,-27.6 19.55,-43.91 37.41,-57.57 24.34,-18.62 13.78,-43.86 16.42,-69.46 3.07,-29.66 74.2,-45.81 78.47,-116.06 3.38,-55.6 19.91,-61.58 55.66,-94.12 26.31,-23.95 16.06,-56.15 32.84,-83.17 16.37,-26.35 71.71,-19.76 101.28,-53 39.84,-44.77 80.04,-89.25 119.53,-134.34 18.96,-21.64 69.19,-91.55 93.07,-89.56 68.34,5.69 250.28,-62.98 178.83,-154.44 -18.78,-24.04 8.8,-68.92 -0.91,-105.1 -11.95,-44.5 30.83,-13.87 43.8,-50.26 8.23,-23.12 -10.05,-70.3 17.33,-83.16 40.43,-18.99 83.51,82.24 139.61,-17.37 40.37,-71.69 65.54,-194.68 161.5,-122.45 56.2,42.3 108.27,-13.54 163.32,-23.76 59.25,-11 119.5,-1.94 179.75,12.79 102.3,25.01 189.78,91.4 284.68,137.08 69.14,33.29 197.71,112.58 157.85,-34.73 -8.28,-30.61 -12.93,-62.11 -19.17,-93.21 -16.21,-80.8 39.73,-56.73 34.68,-137.08 -4.8,-76.35 82.3,-90.69 118.61,-138 84.81,-110.51 20.5,-143.21 11.86,-250.4 -7.61,-94.37 165.87,-173.55 225.37,-228.46 68.06,-62.82 55.36,-203.97 73,-292.44 25.94,-130.03 109.88,-278.37 165.15,-398.45 9.94,-21.6 -2.36,-51.18 3.65,-74.02 10.43,-39.59 30.96,-83.03 53.83,-116.98 10.4,-15.45 18.24,-32.51 27.37,-48.77"
                id="path44"/>
        <path
                class="fil4 str6"
                d="m 20220.96,10845.44 c -22.06,23.15 -39.7,51.54 -66.17,69.46 -29.57,20.02 -62.97,39.04 -98.54,42.03 -82.54,6.95 -165.36,-13.44 -248.18,-12.79 -71.37,0.56 -147.58,-10.89 -213.51,16.45 -25.51,10.58 -16.33,53.05 -20.07,80.42 -2.39,17.5 -3.3,36.09 1.83,53 3.78,12.46 10.88,28.86 23.72,31.08 37.23,6.46 77.08,-18.64 113.14,-7.32 31.24,9.81 60.59,35.48 72.99,65.8 69.31,169.36 102.79,351.7 167.89,522.74 28.87,75.87 79.57,141.76 113.14,215.67 27.98,61.59 39.53,130.28 71.16,190.08 20.28,38.33 55.06,67.02 82.6,100.53"
                id="path45"/>


        <rect
                class="fil4 str9"
                x="1000"
                y="1000"
                width="19220.961"
                height="19000"
                id="rect62"/>


        <a
                id="a2"
                xlink:href="../caves/Toquepala.html"><path
     id="text82"
     style="font-size:21.3333px;white-space:pre;stroke-width:66.5;stroke-dasharray:none"
     d="m 5132.8683,10444.909 v -44.591 h 89.182 q -20.8843,-15.805 -40.64,-39.511 -19.7554,-24.271 -32.7377,-57.573 -12.4177,-33.302 -12.4177,-75.071 0,-55.316 21.4487,-98.778 21.449,-43.462 62.6534,-68.298 41.2043,-25.4 100.471,-25.4 59.831,0 101.0354,24.836 41.2043,24.835 62.653,68.297 21.449,43.463 21.449,98.778 0,42.334 -12.4177,75.636 -12.4179,33.302 -32.1733,57.573 -19.191,23.706 -40.64,39.511 h 88.6177 v 44.591 h -151.271 v -40.64 q 34.9956,-24.836 55.88,-50.8 20.8843,-25.965 29.9156,-55.88 9.031,-30.48 9.031,-67.733 0,-42.898 -14.111,-76.765 -14.1113,-33.866 -43.4623,-53.057 -28.7867,-19.756 -74.5064,-19.756 -45.1556,0 -74.5067,19.756 -28.7866,19.191 -42.8977,53.057 -13.5466,33.867 -13.5466,76.765 0,37.253 9.031,67.733 9.0313,29.915 29.3513,55.88 20.8843,25.4 55.8797,50.8 v 40.64 z m 764.8215,-364.066 q -64.911,0 -102.1641,43.462 -37.2533,43.462 -37.2533,119.098 0,75.07 34.431,119.097 34.9956,43.462 104.422,43.462 26.529,0 50.2354,-4.515 23.7067,-4.516 46.2846,-11.289 v 44.026 q -22.5779,8.467 -46.849,12.418 -23.7066,3.951 -57.0087,3.951 -61.5243,0 -102.7287,-25.4 -41.2043,-25.4 -62.089,-72.249 -20.3197,-46.848 -20.3197,-110.066 0,-60.96 22.0131,-107.244 22.5779,-46.849 66.04,-72.814 43.462,-26.528 105.551,-26.528 63.782,0 111.1954,23.706 l -20.32,42.898 q -18.6267,-8.467 -41.769,-15.24 -22.5777,-6.773 -49.671,-6.773 z m 430.1061,61.524 v 302.542 h -40.64 l -7.3377,-40.076 h -2.2569 q -14.6756,23.707 -40.64,34.996 -25.9643,10.724 -55.3154,10.724 -54.751,0 -82.4089,-25.964 -27.6577,-26.529 -27.6577,-84.102 v -198.12 h 50.2356 v 194.733 q 0,72.249 67.1687,72.249 50.2354,0 69.4264,-28.222 19.7557,-28.223 19.7557,-81.28 v -157.48 z m 212.7951,-5.644 q 38.9467,0 66.6044,16.933 28.2223,16.934 42.8977,47.978 15.24,30.48 15.24,71.684 v 29.916 h -207.1508 q 1.1298,51.364 25.9644,78.457 25.4,26.529 70.5556,26.529 28.7864,0 50.7997,-5.08 22.578,-5.644 46.2844,-15.804 v 43.462 q -23.142,10.16 -45.7197,14.675 -22.578,5.08 -53.6223,5.08 -42.8977,0 -76.1998,-17.497 -32.7377,-17.498 -51.3643,-51.929 -18.0623,-34.996 -18.0623,-85.231 0,-49.671 16.3689,-85.231 16.9334,-35.56 46.8487,-54.751 30.48,-19.191 70.5554,-19.191 z m -0.5635,40.64 q -35.56,0 -56.4444,23.142 -20.32,22.578 -24.271,63.218 h 154.093 q -0.5635,-38.382 -18.0623,-62.089 -17.4977,-24.271 -55.3153,-24.271 z m 257.3856,267.546 -114.5821,-302.542 h 53.0577 l 64.3464,178.364 q 4.5157,12.418 9.5957,27.658 5.08,15.24 9.031,29.351 3.951,13.547 5.6443,23.142 h 2.2569 q 2.2569,-9.595 6.2087,-23.706 4.5157,-14.112 9.5957,-29.352 5.6443,-15.24 9.5956,-27.093 l 64.3464,-178.364 h 53.0577 l -115.1464,302.542 z m 334.7145,-307.622 q 55.3154,0 81.8444,24.271 26.5287,24.271 26.5287,77.329 v 206.022 h -36.1243 l -9.5954,-42.898 h -2.2569 q -19.7554,24.836 -41.7687,36.689 -21.449,11.853 -59.8311,11.853 -41.2043,0 -68.2976,-21.449 -27.0934,-22.013 -27.0934,-68.297 0,-45.156 35.56,-69.427 35.56,-24.835 109.5021,-27.093 l 51.3643,-1.693 v -18.062 q 0,-37.818 -16.369,-52.494 -16.3687,-14.675 -46.2843,-14.675 -23.7067,0 -45.1554,7.338 -21.449,6.773 -40.0756,15.804 l -15.2398,-37.253 q 19.7554,-10.725 46.8487,-18.063 27.0934,-7.902 56.4444,-7.902 z m 14.6757,161.431 q -56.4444,2.257 -78.4577,18.062 -21.449,15.804 -21.449,44.591 0,25.4 15.24,37.253 15.8044,11.854 40.0754,11.854 38.3823,0 63.7823,-20.885 25.4,-21.449 25.4,-65.475 v -27.093 z m 384.3864,62.653 q 0,44.027 -32.7377,66.605 -32.7377,22.577 -88.0531,22.577 -31.609,0 -54.751,-5.08 -22.5777,-5.08 -40.0756,-14.111 v -45.155 q 18.0623,9.031 43.4623,16.933 25.9643,7.338 52.493,7.338 37.818,0 54.7511,-11.854 16.9333,-12.417 16.9333,-32.737 0,-11.289 -6.2087,-20.32 -6.209,-9.031 -22.5777,-18.063 -15.8046,-9.031 -45.72,-20.32 -29.351,-11.288 -50.2357,-22.577 -20.8843,-11.289 -32.173,-27.093 -11.289,-15.805 -11.289,-40.64 0,-38.382 31.0444,-59.267 31.6089,-20.884 82.4087,-20.884 27.6577,0 51.3643,5.644 24.2713,5.08 45.1557,14.676 l -16.9334,39.511 q -19.191,-7.902 -40.0756,-13.547 -20.8844,-5.644 -42.8977,-5.644 -30.4797,0 -46.8487,10.16 -15.8044,9.595 -15.8044,26.529 0,12.417 7.3377,21.448 7.3377,8.467 24.271,16.934 17.4977,7.902 46.2844,19.191 28.7867,10.724 49.1067,22.013 20.32,11.289 31.0443,27.658 10.7244,15.804 10.7244,40.075 z m 327.3774,89.182 q -56.4444,0 -90.311,-38.946 -33.8664,-39.511 -33.8664,-117.404 0,-77.894 33.8664,-117.405 34.431,-40.075 90.8754,-40.075 34.9956,0 57.0089,12.982 22.5777,12.982 36.6887,31.609 h 3.3867 q -0.5635,-7.338 -2.2569,-21.449 -1.1298,-14.676 -1.1298,-23.142 v -120.791 h 49.6711 v 428.977 h -40.0754 l -7.3377,-40.64 h -2.2569 q -13.5467,19.191 -36.1243,32.738 -22.5777,13.546 -58.1377,13.546 z m 7.9023,-41.204 q 47.9777,0 67.1687,-25.965 19.7557,-26.528 19.7557,-79.586 v -9.031 q 0,-56.444 -18.6267,-86.36 -18.6267,-30.48 -68.8623,-30.48 -40.0754,0 -60.3954,32.174 -19.7554,31.608 -19.7554,85.231 0,54.186 19.7554,84.101 20.32,29.916 60.96,29.916 z m 348.8259,-272.626 q 38.9466,0 66.6043,16.933 28.2221,16.934 42.8977,47.978 15.24,30.48 15.24,71.684 v 29.916 h -207.1507 q 1.1297,51.364 25.9643,78.457 25.4,26.529 70.5554,26.529 28.7867,0 50.8,-5.08 22.5777,-5.644 46.2844,-15.804 v 43.462 q -23.1423,10.16 -45.72,14.675 -22.5777,5.08 -53.6221,5.08 -42.8977,0 -76.2,-17.497 -32.7377,-17.498 -51.3643,-51.929 -18.0621,-34.996 -18.0621,-85.231 0,-49.671 16.3687,-85.231 16.9334,-35.56 46.849,-54.751 30.48,-19.191 70.5554,-19.191 z m -0.5636,40.64 q -35.56,0 -56.4443,23.142 -20.32,22.578 -24.2713,63.218 h 154.0933 q -0.5636,-38.382 -18.0623,-62.089 -17.4977,-24.271 -55.3154,-24.271 z m 483.1633,267.546 h -50.8 v -358.422 h -125.8707 v -44.591 h 301.9771 v 44.591 H 8697.895 Z m 403.0125,-151.835 q 0,75.07 -38.382,116.275 -37.8177,41.204 -102.7287,41.204 -40.0757,0 -71.6844,-18.062 -31.0443,-18.627 -49.1066,-53.622 -18.0621,-35.56 -18.0621,-85.795 0,-75.071 37.8177,-115.711 37.8177,-40.64 102.7287,-40.64 41.2044,0 72.2487,18.626 31.609,18.063 49.1067,53.058 18.062,34.431 18.062,84.667 z m -228.5994,0 q 0,53.622 20.8843,85.23 21.4487,31.045 67.7334,31.045 45.7197,0 67.1687,-31.045 21.4487,-31.608 21.4487,-85.23 0,-53.622 -21.4487,-84.102 -21.449,-30.48 -67.7334,-30.48 -46.2843,0 -67.1687,30.48 -20.8843,30.48 -20.8843,84.102 z m 508.5635,158.044 q 0,-10.16 0.5636,-23.707 0.5636,-13.547 2.2569,-23.142 h -3.3867 q -12.9823,19.191 -36.1243,32.738 -22.578,13.546 -58.7023,13.546 -54.7511,0 -89.1821,-38.946 -33.8667,-39.511 -33.8667,-117.404 0,-77.894 34.4313,-117.405 34.9954,-40.075 90.3108,-40.075 35.56,0 58.1377,13.546 22.5777,13.547 36.1243,33.303 h 2.2569 l 7.3377,-41.205 h 39.511 v 438.008 h -49.671 z m -85.7953,-41.769 q 46.8487,0 66.04,-25.4 19.7553,-25.965 20.3197,-79.022 v -10.16 q 0,-57.573 -19.191,-86.924 -19.1911,-29.916 -68.2977,-29.916 -40.6398,0 -60.3954,32.174 -19.7556,31.608 -19.7556,85.231 0,53.621 19.7556,84.101 20.32,29.916 61.5244,29.916 z m 484.2894,-266.982 v 302.542 h -40.64 l -7.337,-40.076 h -2.249 q -14.676,23.707 -40.64,34.996 -25.964,10.724 -55.316,10.724 -54.751,0 -82.407,-25.964 -27.659,-26.529 -27.659,-84.102 v -198.12 h 50.235 v 194.733 q 0,72.249 67.17,72.249 50.234,0 69.424,-28.222 19.757,-28.223 19.757,-81.28 v -157.48 z m 212.796,-5.644 q 38.9473,0 66.6043,16.933 28.223,16.934 42.899,47.978 15.24,30.48 15.24,71.684 v 29.916 h -207.1523 q 1.137,51.364 25.966,78.457 25.4,26.529 70.5543,26.529 28.786,0 50.8,-5.08 22.579,-5.644 46.286,-15.804 v 43.462 q -23.143,10.16 -45.72,14.675 -22.58,5.08 -53.623,5.08 -42.8973,0 -76.2003,-17.497 -32.737,-17.498 -51.364,-51.929 -18.063,-34.996 -18.063,-85.231 0,-49.671 16.37,-85.231 16.933,-35.56 46.847,-54.751 30.48,-19.191 70.556,-19.191 z m -0.555,40.64 q -35.56,0 -56.446,23.142 -20.32,22.578 -24.271,63.218 h 154.0943 q -0.556,-38.382 -18.063,-62.089 -17.497,-24.271 -55.3143,-24.271 z m 346.0033,-40.64 q 55.88,0 89.747,38.946 34.43,38.947 34.43,117.405 0,77.328 -34.43,117.404 -33.867,40.075 -90.313,40.075 -34.994,0 -58.137,-12.982 -22.577,-13.547 -35.56,-31.044 h -3.386 q 1.137,9.595 2.248,24.271 1.138,14.675 1.138,25.4 v 124.177 h -49.67 v -438.008 h 40.64 l 6.773,41.205 h 2.249 q 13.547,-19.756 35.56,-33.303 22.014,-13.546 58.703,-13.546 z m -9.033,41.769 q -46.283,0 -65.473,25.964 -18.627,25.964 -19.757,79.022 v 9.596 q 0,55.879 18.063,86.359 18.627,29.916 68.297,29.916 27.657,0 45.157,-15.24 18.06,-15.24 26.527,-41.205 9.033,-26.528 9.033,-60.395 0,-51.929 -20.32,-82.973 -19.757,-31.044 -61.527,-31.044 z m 326.814,-41.205 q 55.316,0 81.843,24.271 26.53,24.271 26.53,77.329 v 206.022 h -36.123 l -9.597,-42.898 h -2.249 q -19.756,24.836 -41.77,36.689 -21.449,11.853 -59.83,11.853 -41.206,0 -68.299,-21.449 -27.091,-22.013 -27.091,-68.297 0,-45.156 35.557,-69.427 35.56,-24.835 109.503,-27.093 l 51.364,-1.693 v -18.062 q 0,-37.818 -16.367,-52.494 -16.37,-14.675 -46.286,-14.675 -23.707,0 -45.154,7.338 -21.45,6.773 -40.077,15.804 l -15.24,-37.253 q 19.757,-10.725 46.85,-18.063 27.093,-7.902 56.444,-7.902 z m 14.676,161.431 q -56.446,2.257 -78.459,18.062 -21.447,15.804 -21.447,44.591 0,25.4 15.24,37.253 15.803,11.854 40.073,11.854 38.383,0 63.783,-20.885 25.4,-21.449 25.4,-65.475 v -27.093 z m 237.067,146.191 h -49.67 v -428.977 h 49.67 z m 210.537,-307.622 q 55.314,0 81.843,24.271 26.53,24.271 26.53,77.329 v 206.022 h -36.126 l -9.594,-42.898 h -2.249 q -19.754,24.836 -41.767,36.689 -21.45,11.853 -59.833,11.853 -41.203,0 -68.297,-21.449 -27.093,-22.013 -27.093,-68.297 0,-45.156 35.56,-69.427 35.56,-24.835 109.503,-27.093 l 51.364,-1.693 v -18.062 q 0,-37.818 -16.37,-52.494 -16.367,-14.675 -46.284,-14.675 -23.706,0 -45.156,7.338 -21.447,6.773 -40.074,15.804 l -15.24,-37.253 q 19.756,-10.725 46.847,-18.063 27.093,-7.902 56.446,-7.902 z m 14.674,161.431 q -56.444,2.257 -78.457,18.062 -21.447,15.804 -21.447,44.591 0,25.4 15.237,37.253 15.806,11.854 40.076,11.854 38.383,0 63.783,-20.885 25.4,-21.449 25.4,-65.475 v -27.093 z"
     onclick="" /></a>
        <rect
                style="fill:#3973d6;fill-opacity:0;stroke:url(#linearGradient83);stroke-width:71.6571;stroke-dasharray:none;stroke-opacity:1"
                id="rect83"
                width="6462.6357"
                height="611.26135"
                x="5633.1465"
                y="11045.792"/>
        <rect
                style="fill:#9b9fa0;fill-opacity:0;stroke:#000000;stroke-width:66.5001;stroke-opacity:0"
                id="rect2"
                width="6375.4648"
                height="702.60223"
                x="4956.6421"
                y="9903.7656"/></g>
</svg>
